<?xml version="1.0" encoding="UTF-8" standalone="no"?>
<svg width="170px" height="59px" viewBox="0 0 170 59" version="1.1" xmlns="http://www.w3.org/2000/svg" xmlns:xlink="http://www.w3.org/1999/xlink" xmlns:sketch="http://www.bohemiancoding.com/sketch/ns">
    <!-- Generator: Sketch 3.4 (15588) - http://www.bohemiancoding.com/sketch -->
    <title>Group</title>
    <desc>Created with Sketch.</desc>
    <defs></defs>
    <g id="Page-1" stroke="none" stroke-width="1" fill="none" fill-rule="evenodd" sketch:type="MSPage">
        <g id="Group" sketch:type="MSLayerGroup">
            <path d="M169.667,0.583 C169.667,0.583 102.09,18.833 -5.68434189e-14,0.583 L9.861,51.333 C9.861,51.333 78.598,68.333 159.806,51.333 L169.667,0.583 L169.667,0.583 Z" id="Shape" fill="#EFB034" sketch:type="MSShapeGroup"></path>
            <g transform="translate(125.000000, 17.000000)" id="Shape" fill="#FFFFFF" sketch:type="MSShapeGroup">
                <path d="M14.152,28.328 C6.6,28.328 0.455,22.185 0.455,14.634 C0.455,7.082 6.6,0.938 14.152,0.938 C21.703,0.938 27.847,7.082 27.847,14.634 C27.847,17.997 26.057,21.643 24.855,23.273 C24.781,23.373 24.665,23.437 24.539,23.445 C24.4,23.451 24.29,23.405 24.203,23.316 L23.559,22.648 L17.516,16.606 C17.349,16.439 17.349,16.168 17.516,16 L18.614,14.901 L12.507,13.264 L14.145,19.371 L15.314,18.203 C15.475,18.041 15.759,18.041 15.92,18.203 L22.534,24.813 C22.625,24.903 22.671,25.031 22.659,25.158 C22.647,25.285 22.578,25.401 22.471,25.472 C20.893,26.533 17.365,28.328 14.152,28.328 L14.152,28.328 Z M14.152,1.794 C7.072,1.794 1.312,7.553 1.312,14.633 C1.312,21.711 7.072,27.47 14.152,27.47 C16.891,27.47 19.905,26.056 21.552,25.044 L15.616,19.11 L14.225,20.502 C14.118,20.61 13.96,20.65 13.812,20.613 C13.665,20.573 13.549,20.456 13.509,20.309 L11.488,12.767 C11.447,12.62 11.49,12.462 11.598,12.353 C11.705,12.245 11.862,12.202 12.011,12.242 L19.552,14.262 C19.7,14.302 19.815,14.418 19.856,14.566 C19.896,14.713 19.853,14.871 19.745,14.98 L18.425,16.301 L24.457,22.343 C25.569,20.658 26.991,17.527 26.991,14.631 C26.991,7.553 21.23,1.794 14.152,1.794 L14.152,1.794 Z"></path>
                <path d="M14.152,24.971 C8.45,24.971 3.813,20.333 3.813,14.632 C3.813,8.932 8.45,4.295 14.152,4.295 C19.852,4.295 24.49,8.932 24.49,14.632 C24.49,16.874 23.783,19.007 22.449,20.801 C22.307,20.991 22.038,21.03 21.849,20.89 C21.658,20.747 21.62,20.479 21.76,20.29 C22.986,18.646 23.632,16.689 23.632,14.634 C23.632,9.405 19.379,5.153 14.151,5.153 C8.922,5.153 4.669,9.406 4.669,14.634 C4.669,19.862 8.923,24.115 14.151,24.115 C16.05,24.115 17.883,23.555 19.453,22.496 C19.646,22.364 19.915,22.414 20.046,22.612 C20.179,22.808 20.128,23.074 19.93,23.205 C18.222,24.36 16.224,24.971 14.152,24.971 L14.152,24.971 L14.152,24.971 Z"></path>
                <path d="M14.152,21.758 C10.222,21.758 7.026,18.562 7.026,14.632 C7.026,10.704 10.222,7.507 14.152,7.507 C18.081,7.507 21.277,10.703 21.277,14.632 C21.277,15.99 20.894,17.309 20.169,18.447 C20.042,18.647 19.776,18.705 19.578,18.578 C19.379,18.451 19.318,18.186 19.446,17.987 C20.084,16.986 20.421,15.826 20.421,14.631 C20.421,11.175 17.609,8.363 14.153,8.363 C10.696,8.363 7.882,11.175 7.882,14.631 C7.882,18.088 10.695,20.901 14.153,20.901 C15.199,20.901 16.236,20.638 17.147,20.139 C17.355,20.025 17.616,20.102 17.728,20.31 C17.843,20.518 17.765,20.779 17.558,20.891 C16.519,21.458 15.342,21.758 14.152,21.758 L14.152,21.758 L14.152,21.758 Z"></path>
            </g>
            <g transform="translate(47.000000, 26.000000)" id="Shape" fill="#FFFFFF" sketch:type="MSShapeGroup">
                <path d="M2.89,7.272 L1.637,10.133 L0.383,10.015 L4.457,0.926 L5.92,1.064 L8.239,10.755 L6.944,10.633 L6.218,7.585 L2.89,7.272 L2.89,7.272 Z M6.058,6.614 L5.393,3.825 C5.242,3.192 5.155,2.622 5.067,2.066 L5.04,2.063 C4.848,2.607 4.641,3.164 4.406,3.718 L3.23,6.348 L6.058,6.614 L6.058,6.614 Z"></path>
                <path d="M11.506,2.237 L11.364,4.177 L13.123,4.306 L13.055,5.242 L11.296,5.113 L11.028,8.757 C10.967,9.595 11.17,10.087 11.854,10.137 C12.174,10.16 12.416,10.136 12.572,10.105 L12.56,11.031 C12.316,11.112 11.934,11.154 11.458,11.119 C10.886,11.077 10.438,10.862 10.17,10.505 C9.848,10.116 9.766,9.507 9.824,8.711 L10.094,5.025 L9.047,4.948 L9.115,4.012 L10.162,4.089 L10.281,2.469 L11.506,2.237 L11.506,2.237 Z"></path>
                <path d="M14.26,6.496 C14.307,5.699 14.333,5.014 14.328,4.382 L15.404,4.445 L15.368,5.775 L15.424,5.778 C15.785,4.888 16.56,4.358 17.384,4.407 C17.524,4.415 17.621,4.435 17.732,4.469 L17.664,5.629 C17.539,5.593 17.415,5.572 17.247,5.562 C16.38,5.511 15.726,6.132 15.505,7.044 C15.467,7.21 15.427,7.404 15.415,7.614 L15.202,11.22 L13.986,11.148 L14.26,6.496 L14.26,6.496 Z"></path>
                <path d="M22.193,11.559 L22.131,10.702 L22.089,10.7 C21.689,11.216 20.942,11.661 19.977,11.622 C18.605,11.565 17.946,10.57 17.986,9.591 C18.054,7.954 19.547,7.118 22.163,7.241 L22.169,7.101 C22.192,6.541 22.08,5.528 20.694,5.47 C20.064,5.444 19.399,5.613 18.91,5.901 L18.664,5.078 C19.239,4.737 20.06,4.533 20.914,4.568 C22.985,4.654 23.43,6.088 23.374,7.445 L23.269,9.977 C23.245,10.565 23.249,11.14 23.314,11.605 L22.193,11.559 L22.193,11.559 Z M22.154,8.095 C20.812,8.012 19.277,8.186 19.222,9.501 C19.189,10.299 19.705,10.699 20.335,10.725 C21.216,10.762 21.799,10.225 22.019,9.66 C22.066,9.536 22.1,9.397 22.105,9.271 L22.154,8.095 L22.154,8.095 Z"></path>
                <path d="M25.884,8.51 C25.879,10.176 26.929,10.882 28.16,10.906 C29.041,10.923 29.576,10.78 30.042,10.593 L30.234,11.479 C29.796,11.666 29.05,11.875 27.973,11.854 C25.888,11.813 24.669,10.417 24.709,8.375 C24.749,6.333 25.984,4.747 27.957,4.785 C30.168,4.828 30.718,6.785 30.693,8.03 C30.688,8.282 30.656,8.477 30.639,8.603 L25.884,8.51 L25.884,8.51 Z M29.511,7.699 C29.54,6.916 29.229,5.692 27.843,5.665 C26.598,5.641 26.03,6.777 25.915,7.629 L29.511,7.699 L29.511,7.699 Z"></path>
                <path d="M35.481,5.004 L36.847,8.797 C37.077,9.41 37.265,9.968 37.41,10.526 L37.452,10.526 C37.6,9.964 37.791,9.403 38.009,8.785 L39.286,4.966 L40.573,4.953 L37.981,11.751 L36.806,11.763 L34.164,5.016 L35.481,5.004 L35.481,5.004 Z"></path>
                <path d="M42.927,2.982 C42.951,3.401 42.652,3.744 42.161,3.756 C41.727,3.767 41.412,3.438 41.401,3.019 C41.391,2.585 41.705,2.242 42.152,2.231 C42.615,2.22 42.917,2.548 42.927,2.982 L42.927,2.982 Z M41.764,11.69 L41.602,4.918 L42.832,4.889 L42.995,11.661 L41.764,11.69 L41.764,11.69 Z"></path>
                <path d="M44.786,10.353 C45.159,10.578 45.811,10.806 46.428,10.783 C47.324,10.75 47.727,10.286 47.705,9.727 C47.684,9.139 47.322,8.831 46.4,8.528 C45.167,8.139 44.568,7.489 44.538,6.677 C44.497,5.586 45.346,4.657 46.801,4.603 C47.487,4.578 48.096,4.751 48.482,4.961 L48.208,5.868 C47.936,5.71 47.437,5.504 46.809,5.528 C46.081,5.555 45.691,5.99 45.709,6.493 C45.73,7.053 46.145,7.289 47.039,7.593 C48.23,7.997 48.854,8.563 48.892,9.57 C48.936,10.759 48.043,11.633 46.435,11.693 C45.693,11.72 45,11.564 44.515,11.301 L44.786,10.353 L44.786,10.353 Z"></path>
                <path d="M51.442,2.646 C51.477,3.064 51.186,3.416 50.697,3.44 C50.263,3.461 49.939,3.142 49.919,2.722 C49.897,2.289 50.201,1.937 50.648,1.915 C51.11,1.892 51.42,2.212 51.442,2.646 L51.442,2.646 Z M50.507,11.38 L50.167,4.615 L51.396,4.553 L51.736,11.318 L50.507,11.38 L50.507,11.38 Z"></path>
                <path d="M54.723,2.411 L54.841,4.354 L56.603,4.247 L56.66,5.184 L54.899,5.291 L55.122,8.939 C55.174,9.778 55.44,10.238 56.125,10.196 C56.446,10.176 56.682,10.12 56.833,10.069 L56.945,10.988 C56.714,11.1 56.341,11.193 55.865,11.222 C55.292,11.257 54.82,11.103 54.506,10.786 C54.134,10.444 53.972,9.85 53.923,9.054 L53.697,5.364 L52.649,5.428 L52.591,4.491 L53.64,4.427 L53.54,2.805 L54.723,2.411 L54.723,2.411 Z"></path>
                <path d="M62.077,10.63 L61.913,9.786 L61.872,9.789 C61.536,10.349 60.847,10.88 59.884,10.955 C58.515,11.061 57.742,10.152 57.666,9.174 C57.54,7.541 58.922,6.534 61.534,6.346 L61.523,6.206 C61.48,5.647 61.248,4.654 59.866,4.761 C59.238,4.81 58.596,5.056 58.146,5.4 L57.803,4.612 C58.333,4.206 59.125,3.905 59.977,3.84 C62.043,3.68 62.656,5.051 62.76,6.405 L62.956,8.932 C63.002,9.518 63.074,10.089 63.193,10.543 L62.077,10.63 L62.077,10.63 Z M61.627,7.196 C60.285,7.272 58.781,7.627 58.883,8.94 C58.945,9.736 59.505,10.072 60.133,10.023 C61.013,9.955 61.528,9.353 61.679,8.765 C61.711,8.636 61.729,8.494 61.719,8.369 L61.627,7.196 L61.627,7.196 Z"></path>
                <path d="M64.749,9.139 C65.134,9.342 65.799,9.531 66.411,9.473 C67.303,9.388 67.679,8.902 67.625,8.345 C67.569,7.76 67.19,7.472 66.253,7.224 C65,6.908 64.365,6.293 64.288,5.485 C64.184,4.399 64.977,3.423 66.427,3.285 C67.11,3.22 67.727,3.358 68.124,3.545 L67.902,4.466 C67.622,4.324 67.113,4.148 66.486,4.207 C65.761,4.276 65.397,4.733 65.445,5.234 C65.498,5.791 65.925,6.004 66.836,6.254 C68.049,6.588 68.703,7.116 68.799,8.119 C68.912,9.304 68.072,10.227 66.47,10.38 C65.732,10.45 65.032,10.334 64.532,10.101 L64.749,9.139 L64.749,9.139 Z"></path>
            </g>
        </g>
    </g>
</svg>