<?xml version="1.0" encoding="UTF-8" standalone="no"?>
<svg width="147px" height="59px" viewBox="0 0 147 59" version="1.1" xmlns="http://www.w3.org/2000/svg" xmlns:xlink="http://www.w3.org/1999/xlink" xmlns:sketch="http://www.bohemiancoding.com/sketch/ns">
    <!-- Generator: Sketch 3.4 (15588) - http://www.bohemiancoding.com/sketch -->
    <title>Group</title>
    <desc>Created with Sketch.</desc>
    <defs></defs>
    <g id="Page-1" stroke="none" stroke-width="1" fill="none" fill-rule="evenodd" sketch:type="MSPage">
        <g id="Group" sketch:type="MSLayerGroup">
            <path d="M146.5,0.25 C146.5,0.25 88.25,18.5 0.25,0.25 L8.75,51 C8.75,51 68,68 138,51 L146.5,0.25 L146.5,0.25 Z" id="Shape" fill="#FA8930" sketch:type="MSShapeGroup"></path>
            <g transform="translate(113.000000, 20.000000)" id="Shape" fill="#FFFFFF" sketch:type="MSShapeGroup">
                <path d="M3.505,16.442 C3.379,16.442 3.255,16.378 3.185,16.26 C3.078,16.082 3.136,15.856 3.313,15.748 L18.223,6.803 C18.397,6.699 18.628,6.754 18.734,6.93 C18.841,7.108 18.782,7.335 18.606,7.442 L3.697,16.388 C3.638,16.425 3.57,16.442 3.505,16.442 L3.505,16.442 Z"></path>
                <path d="M9.841,12.343 C9.779,12.343 9.716,12.326 9.658,12.294 L1.085,7.448 C0.906,7.345 0.842,7.12 0.944,6.94 C1.045,6.76 1.273,6.699 1.453,6.798 L10.025,11.646 C10.204,11.747 10.267,11.973 10.166,12.153 C10.098,12.274 9.971,12.343 9.841,12.343 L9.841,12.343 Z"></path>
                <path d="M17.669,16.442 L2.014,16.442 C1.398,16.442 0.896,15.94 0.896,15.324 L0.896,7.131 C0.896,6.542 1.178,5.983 1.652,5.632 L8.734,0.4 C9.397,-0.091 10.285,-0.091 10.949,0.4 L13.919,2.595 C14.086,2.716 14.121,2.95 13.998,3.116 C13.874,3.282 13.64,3.317 13.477,3.193 L10.505,0.998 C10.108,0.704 9.573,0.704 9.177,0.998 L2.093,6.232 C1.81,6.442 1.64,6.778 1.64,7.13 L1.64,15.323 C1.64,15.529 1.807,15.695 2.012,15.695 L17.667,15.695 C17.872,15.695 18.04,15.529 18.04,15.323 L18.04,7.13 C18.04,6.776 17.87,6.442 17.585,6.232 L14.333,3.828 C14.167,3.706 14.132,3.473 14.255,3.307 C14.379,3.142 14.613,3.109 14.776,3.232 L18.028,5.635 C18.502,5.984 18.784,6.543 18.784,7.132 L18.784,15.325 C18.787,15.94 18.286,16.442 17.669,16.442 L17.669,16.442 Z"></path>
                <path d="M9.841,8.615 C9.746,8.615 9.651,8.579 9.578,8.507 L6.969,5.899 C6.824,5.753 6.824,5.516 6.969,5.372 L7.715,4.627 C7.861,4.481 8.096,4.481 8.242,4.627 L9.842,6.227 L15.17,0.901 C15.315,0.755 15.551,0.755 15.698,0.901 L16.443,1.646 C16.589,1.792 16.589,2.029 16.443,2.173 L10.107,8.509 C10.033,8.579 9.938,8.615 9.841,8.615 L9.841,8.615 Z M7.76,5.634 L9.841,7.716 L15.651,1.906 L15.433,1.688 L10.106,7.013 C9.96,7.159 9.724,7.159 9.579,7.013 L7.978,5.413 L7.76,5.634 L7.76,5.634 Z"></path>
            </g>
            <g transform="translate(29.000000, 25.000000)" id="Shape" fill="#FFFFFF" sketch:type="MSShapeGroup">
                <path d="M6.345,8.942 C5.94,9.085 5.154,9.177 4.178,9.053 C1.917,8.766 0.396,7.121 0.73,4.491 C1.048,1.979 2.966,0.493 5.454,0.808 C6.454,0.935 7.057,1.229 7.313,1.408 L6.956,2.22 C6.588,1.981 6.046,1.766 5.38,1.681 C3.5,1.444 2.097,2.487 1.83,4.592 C1.581,6.556 2.552,7.961 4.503,8.209 C5.134,8.289 5.793,8.239 6.235,8.09 L6.345,8.942 L6.345,8.942 Z"></path>
                <path d="M12.951,6.953 C12.722,9.089 11.142,9.86 9.746,9.711 C8.183,9.543 7.101,8.268 7.297,6.442 C7.505,4.507 8.891,3.51 10.49,3.682 C12.149,3.861 13.141,5.188 12.951,6.953 L12.951,6.953 Z M8.363,6.521 C8.227,7.786 8.853,8.819 9.879,8.928 C10.881,9.035 11.734,8.173 11.874,6.872 C11.979,5.893 11.623,4.601 10.382,4.467 C9.141,4.335 8.481,5.423 8.363,6.521 L8.363,6.521 Z"></path>
                <path d="M14.308,5.799 C14.362,5.201 14.393,4.711 14.4,4.231 L15.332,4.314 L15.306,5.276 L15.33,5.278 C15.666,4.754 16.383,4.276 17.339,4.361 C18.139,4.432 19.339,5.022 19.162,7.006 L18.853,10.458 L17.802,10.364 L18.1,7.031 C18.183,6.098 17.907,5.292 16.915,5.203 C16.222,5.141 15.641,5.583 15.409,6.152 C15.349,6.279 15.309,6.456 15.293,6.634 L14.982,10.112 L13.931,10.017 L14.308,5.799 L14.308,5.799 Z"></path>
                <path d="M21.215,4.815 L22.115,8.152 C22.268,8.692 22.389,9.181 22.473,9.67 L22.509,9.672 C22.676,9.203 22.878,8.737 23.107,8.225 L24.468,5.053 L25.569,5.132 L22.875,10.757 L21.87,10.684 L20.09,4.736 L21.215,4.815 L21.215,4.815 Z"></path>
                <path d="M26.11,10.97 L26.457,5.172 L27.511,5.235 L27.164,11.032 L26.11,10.97 L26.11,10.97 Z M27.728,3.613 C27.719,3.972 27.438,4.245 27.019,4.218 C26.648,4.197 26.402,3.893 26.423,3.533 C26.445,3.162 26.738,2.889 27.121,2.914 C27.516,2.939 27.75,3.242 27.728,3.613 L27.728,3.613 Z"></path>
                <path d="M29.608,8.453 C29.565,9.882 30.449,10.512 31.504,10.56 C32.26,10.596 32.722,10.486 33.125,10.336 L33.27,11.1 C32.89,11.25 32.246,11.412 31.322,11.37 C29.535,11.286 28.523,10.059 28.605,8.308 C28.687,6.557 29.784,5.226 31.475,5.306 C33.37,5.396 33.795,7.086 33.745,8.155 C33.735,8.371 33.703,8.538 33.686,8.644 L29.608,8.453 L29.608,8.453 Z M32.738,7.843 C32.781,7.172 32.543,6.115 31.356,6.06 C30.289,6.009 29.774,6.971 29.656,7.7 L32.738,7.843 L32.738,7.843 Z"></path>
                <path d="M35.012,7.407 C35.034,6.722 35.042,6.136 35.024,5.595 L35.947,5.625 L35.946,6.766 L35.994,6.768 C36.284,5.997 36.935,5.527 37.643,5.549 C37.763,5.553 37.846,5.57 37.941,5.595 L37.908,6.591 C37.801,6.565 37.693,6.548 37.549,6.543 C36.806,6.519 36.259,7.064 36.089,7.852 C36.06,7.996 36.031,8.163 36.025,8.341 L35.922,11.436 L34.879,11.403 L35.012,7.407 L35.012,7.407 Z"></path>
                <path d="M40.493,4.081 L40.459,5.748 L41.97,5.778 L41.953,6.582 L40.442,6.551 L40.379,9.682 C40.364,10.403 40.56,10.815 41.148,10.827 C41.424,10.833 41.628,10.801 41.761,10.766 L41.793,11.558 C41.587,11.638 41.262,11.693 40.855,11.683 C40.363,11.673 39.971,11.509 39.725,11.216 C39.432,10.9 39.334,10.38 39.348,9.696 L39.412,6.53 L38.513,6.51 L38.529,5.706 L39.428,5.725 L39.456,4.333 L40.493,4.081 L40.493,4.081 Z"></path>
                <path d="M43.54,8.896 C43.555,10.324 44.463,10.917 45.518,10.922 C46.274,10.927 46.73,10.798 47.127,10.633 L47.302,11.39 C46.929,11.555 46.292,11.744 45.369,11.738 C43.582,11.726 42.522,10.545 42.533,8.794 C42.544,7.043 43.584,5.67 45.275,5.681 C47.17,5.695 47.663,7.365 47.656,8.431 C47.655,8.647 47.63,8.816 47.617,8.923 L43.54,8.896 L43.54,8.896 Z M46.639,8.159 C46.655,7.488 46.374,6.442 45.187,6.434 C44.12,6.427 43.645,7.409 43.557,8.138 L46.639,8.159 L46.639,8.159 Z"></path>
                <path d="M51.726,5.786 L52.928,9.026 C53.13,9.549 53.295,10.027 53.424,10.505 L53.46,10.504 C53.583,10.023 53.742,9.539 53.923,9.008 L54.988,5.724 L56.092,5.703 L53.924,11.552 L52.917,11.573 L50.599,5.809 L51.726,5.786 L51.726,5.786 Z"></path>
                <path d="M58.107,3.989 C58.131,4.347 57.877,4.644 57.457,4.659 C57.085,4.672 56.811,4.391 56.8,4.032 C56.788,3.661 57.054,3.364 57.438,3.35 C57.833,3.338 58.095,3.617 58.107,3.989 L58.107,3.989 Z M57.178,11.464 L56.986,5.659 L58.041,5.624 L58.233,11.43 L57.178,11.464 L57.178,11.464 Z"></path>
                <path d="M59.763,10.295 C60.084,10.485 60.645,10.677 61.173,10.653 C61.941,10.619 62.283,10.217 62.262,9.739 C62.24,9.235 61.927,8.971 61.135,8.718 C60.075,8.393 59.557,7.839 59.527,7.144 C59.485,6.208 60.207,5.408 61.454,5.351 C62.042,5.327 62.565,5.47 62.897,5.649 L62.668,6.427 C62.434,6.293 62.005,6.12 61.465,6.144 C60.841,6.172 60.51,6.547 60.529,6.98 C60.55,7.459 60.908,7.66 61.676,7.915 C62.701,8.254 63.239,8.734 63.278,9.598 C63.323,10.619 62.564,11.372 61.184,11.434 C60.549,11.462 59.954,11.332 59.536,11.112 L59.763,10.295 L59.763,10.295 Z"></path>
                <path d="M65.436,3.644 C65.469,4.002 65.222,4.305 64.802,4.331 C64.431,4.352 64.151,4.08 64.13,3.721 C64.109,3.349 64.368,3.046 64.751,3.025 C65.146,2.999 65.414,3.272 65.436,3.644 L65.436,3.644 Z M64.688,11.138 L64.355,5.34 L65.409,5.279 L65.742,11.077 L64.688,11.138 L64.688,11.138 Z"></path>
                <path d="M68.23,3.422 L68.344,5.087 L69.853,4.983 L69.908,5.786 L68.399,5.89 L68.614,9.017 C68.663,9.736 68.895,10.128 69.482,10.088 C69.757,10.068 69.959,10.02 70.088,9.974 L70.19,10.761 C69.992,10.861 69.673,10.943 69.266,10.969 C68.775,11.003 68.369,10.874 68.098,10.606 C67.777,10.315 67.634,9.806 67.587,9.125 L67.37,5.963 L66.472,6.025 L66.417,5.221 L67.315,5.159 L67.219,3.768 L68.23,3.422 L68.23,3.422 Z"></path>
                <path d="M74.605,10.422 L74.459,9.699 L74.423,9.702 C74.139,10.183 73.551,10.643 72.726,10.715 C71.554,10.817 70.885,10.041 70.813,9.203 C70.693,7.804 71.872,6.932 74.11,6.753 L74.1,6.633 C74.059,6.154 73.854,5.305 72.67,5.405 C72.131,5.451 71.584,5.667 71.199,5.965 L70.901,5.292 C71.353,4.939 72.029,4.677 72.759,4.615 C74.53,4.464 75.064,5.635 75.163,6.795 L75.348,8.961 C75.391,9.463 75.456,9.951 75.562,10.34 L74.605,10.422 L74.605,10.422 Z M74.198,7.48 C73.048,7.553 71.76,7.869 71.857,8.994 C71.915,9.676 72.397,9.96 72.936,9.914 C73.689,9.85 74.127,9.33 74.253,8.825 C74.28,8.715 74.294,8.593 74.284,8.485 L74.198,7.48 L74.198,7.48 Z"></path>
                <path d="M76.874,9.13 C77.205,9.301 77.776,9.459 78.301,9.404 C79.065,9.325 79.383,8.906 79.334,8.427 C79.282,7.926 78.956,7.683 78.15,7.477 C77.074,7.214 76.525,6.693 76.454,6 C76.357,5.069 77.03,4.228 78.271,4.099 C78.856,4.038 79.386,4.154 79.728,4.31 L79.545,5.101 C79.303,4.983 78.866,4.833 78.329,4.889 C77.709,4.953 77.4,5.347 77.444,5.778 C77.493,6.256 77.862,6.433 78.643,6.642 C79.685,6.919 80.25,7.369 80.339,8.227 C80.444,9.243 79.731,10.039 78.359,10.181 C77.727,10.246 77.126,10.153 76.695,9.955 L76.874,9.13 L76.874,9.13 Z"></path>
            </g>
        </g>
    </g>
</svg>