<?xml version="1.0" encoding="UTF-8" standalone="no"?>
<svg width="122px" height="59px" viewBox="0 0 122 59" version="1.1" xmlns="http://www.w3.org/2000/svg" xmlns:xlink="http://www.w3.org/1999/xlink" xmlns:sketch="http://www.bohemiancoding.com/sketch/ns">
    <!-- Generator: Sketch 3.4 (15588) - http://www.bohemiancoding.com/sketch -->
    <title>Group</title>
    <desc>Created with Sketch.</desc>
    <defs></defs>
    <g id="Page-1" stroke="none" stroke-width="1" fill="none" fill-rule="evenodd" sketch:type="MSPage">
        <g id="Group" sketch:type="MSLayerGroup">
            <path d="M121.167,0.25 C121.167,0.25 73.239,18.5 0.834,0.25 L7.828,51 C7.828,51 56.578,68 114.174,51 L121.167,0.25 L121.167,0.25 Z" id="Shape" fill="#B7D537" sketch:type="MSShapeGroup"></path>
            <g transform="translate(97.000000, 21.000000)" id="Shape" fill="#FFFFFF" sketch:type="MSShapeGroup">
                <path d="M4.938,13.977 L0.817,13.977 C0.656,13.977 0.525,13.847 0.525,13.683 L0.525,6.622 C0.525,6.462 0.657,6.329 0.817,6.329 L4.938,6.329 C5.099,6.329 5.231,6.462 5.231,6.622 L5.231,13.683 C5.23,13.847 5.099,13.977 4.938,13.977 L4.938,13.977 Z M1.112,13.388 L4.642,13.388 L4.642,6.916 L1.112,6.916 L1.112,13.388 L1.112,13.388 Z"></path>
                <path d="M12.144,13.388 L6.701,13.388 C6.158,13.388 5.17,13.157 4.728,12.715 C4.614,12.6 4.614,12.413 4.728,12.3 C4.843,12.184 5.029,12.184 5.144,12.3 C5.423,12.577 6.223,12.802 6.701,12.802 L12.143,12.802 C12.548,12.802 12.878,12.472 12.878,12.067 C12.878,11.866 12.795,11.673 12.646,11.535 C12.563,11.457 12.532,11.336 12.569,11.226 C12.605,11.118 12.7,11.038 12.814,11.029 C13.187,10.985 13.467,10.673 13.467,10.301 C13.467,10.098 13.384,9.907 13.234,9.766 C13.151,9.69 13.122,9.57 13.158,9.46 C13.193,9.352 13.29,9.274 13.403,9.262 C13.775,9.218 14.056,8.907 14.056,8.534 C14.056,8.262 13.902,8.01 13.653,7.883 C13.558,7.836 13.497,7.739 13.493,7.635 C13.489,7.53 13.543,7.429 13.634,7.374 C13.897,7.21 14.056,6.93 14.056,6.622 C14.056,6.136 13.66,5.74 13.173,5.74 L9.054,5.74 C8.958,5.74 8.867,5.692 8.813,5.612 C8.757,5.533 8.745,5.43 8.779,5.341 C8.785,5.325 9.348,3.833 9.348,2.796 C9.348,1.834 8.494,1.033 8.172,1.033 C7.918,1.033 7.706,1.123 7.584,1.192 L7.584,3.088 C7.584,3.132 7.575,3.175 7.557,3.214 L5.792,7.037 C5.763,7.096 5.716,7.146 5.657,7.176 L5.068,7.47 C4.922,7.544 4.747,7.486 4.673,7.338 C4.6,7.193 4.66,7.018 4.806,6.943 L5.302,6.696 L6.996,3.023 L6.996,1.031 C6.996,0.94 7.037,0.856 7.107,0.8 C7.125,0.786 7.563,0.444 8.173,0.444 C8.853,0.444 9.938,1.521 9.938,2.796 C9.938,3.604 9.649,4.605 9.47,5.151 L13.173,5.151 C13.983,5.151 14.644,5.81 14.644,6.62 C14.644,6.992 14.506,7.34 14.262,7.607 C14.504,7.85 14.644,8.179 14.644,8.532 C14.644,9.044 14.352,9.491 13.918,9.711 C14.009,9.89 14.057,10.091 14.057,10.299 C14.057,10.808 13.764,11.256 13.33,11.476 C13.421,11.657 13.468,11.855 13.468,12.065 C13.467,12.795 12.874,13.388 12.144,13.388 L12.144,13.388 Z"></path>
            </g>
            <g transform="translate(23.000000, 24.000000)" id="Shape" fill="#FFFFFF" sketch:type="MSShapeGroup">
                <path d="M4.627,7.731 C4.286,7.837 3.629,7.896 2.82,7.766 C0.944,7.467 -0.279,6.058 0.068,3.876 C0.4,1.793 2.036,0.605 4.1,0.935 C4.929,1.068 5.424,1.329 5.632,1.483 L5.313,2.151 C5.012,1.941 4.567,1.749 4.014,1.661 C2.454,1.413 1.259,2.245 0.981,3.992 C0.722,5.622 1.493,6.817 3.112,7.075 C3.635,7.158 4.186,7.135 4.558,7.021 L4.627,7.731 L4.627,7.731 Z"></path>
                <path d="M10.182,6.236 C9.939,8.007 8.605,8.613 7.446,8.454 C6.149,8.276 5.279,7.187 5.487,5.673 C5.707,4.069 6.885,3.274 8.213,3.454 C9.589,3.643 10.383,4.771 10.182,6.236 L10.182,6.236 Z M6.372,5.765 C6.228,6.816 6.724,7.691 7.575,7.806 C8.407,7.92 9.138,7.224 9.286,6.144 C9.397,5.332 9.133,4.248 8.103,4.106 C7.073,3.964 6.497,4.854 6.372,5.765 L6.372,5.765 Z"></path>
                <path d="M11.3,5.291 C11.357,4.794 11.393,4.386 11.408,3.985 L12.183,4.073 L12.142,4.873 L12.162,4.876 C12.453,4.445 13.059,4.062 13.854,4.152 C14.52,4.226 15.507,4.743 15.32,6.39 L14.994,9.261 L14.119,9.161 L14.434,6.39 C14.522,5.617 14.307,4.937 13.483,4.843 C12.907,4.779 12.414,5.134 12.209,5.605 C12.157,5.709 12.12,5.857 12.103,6.004 L11.774,8.895 L10.9,8.795 L11.3,5.291 L11.3,5.291 Z"></path>
                <path d="M16.369,8.495 C16.612,8.689 17.052,8.912 17.49,8.953 C18.127,9.014 18.455,8.724 18.493,8.326 C18.533,7.908 18.305,7.655 17.681,7.355 C16.845,6.963 16.482,6.448 16.537,5.871 C16.611,5.096 17.298,4.517 18.333,4.616 C18.82,4.663 19.235,4.843 19.488,5.027 L19.209,5.642 C19.031,5.504 18.698,5.312 18.251,5.27 C17.733,5.22 17.417,5.493 17.383,5.85 C17.345,6.247 17.616,6.454 18.22,6.752 C19.026,7.15 19.414,7.608 19.345,8.325 C19.264,9.17 18.551,9.705 17.407,9.596 C16.88,9.546 16.405,9.37 16.085,9.139 L16.369,8.495 L16.369,8.495 Z"></path>
                <path d="M20.322,9.757 L20.713,4.935 L21.59,5.006 L21.198,9.828 L20.322,9.757 L20.322,9.757 Z M21.799,3.659 C21.785,3.959 21.546,4.18 21.197,4.151 C20.888,4.127 20.688,3.869 20.713,3.57 C20.738,3.26 20.987,3.041 21.305,3.067 C21.635,3.094 21.825,3.35 21.799,3.659 L21.799,3.659 Z"></path>
                <path d="M27.123,5.394 C27.08,5.744 27.035,6.13 26.996,6.719 L26.812,9.524 C26.739,10.631 26.475,11.295 25.979,11.683 C25.481,12.091 24.793,12.188 24.185,12.148 C23.606,12.11 22.977,11.927 22.604,11.642 L22.868,10.989 C23.174,11.21 23.661,11.422 24.26,11.462 C25.158,11.521 25.847,11.095 25.927,9.877 L25.963,9.339 L25.943,9.337 C25.644,9.769 25.101,10.094 24.353,10.045 C23.156,9.966 22.364,8.892 22.452,7.554 C22.56,5.918 23.689,5.06 24.796,5.133 C25.634,5.189 26.065,5.657 26.248,6.071 L26.268,6.072 L26.356,5.345 L27.123,5.394 L27.123,5.394 Z M26.089,7.24 C26.099,7.091 26.097,6.96 26.066,6.838 C25.94,6.318 25.538,5.871 24.899,5.829 C24.061,5.773 23.416,6.443 23.342,7.559 C23.28,8.507 23.707,9.328 24.655,9.389 C25.194,9.425 25.705,9.118 25.931,8.573 C25.991,8.427 26.022,8.258 26.032,8.108 L26.089,7.24 L26.089,7.24 Z"></path>
                <path d="M32.289,9.148 C32.268,9.648 32.259,10.087 32.272,10.468 L31.492,10.435 L31.476,9.644 L31.456,9.642 C31.209,10.023 30.678,10.51 29.818,10.473 C29.059,10.442 28.167,9.983 28.24,8.285 L28.361,5.456 L29.241,5.494 L29.126,8.172 C29.087,9.092 29.34,9.724 30.14,9.758 C30.73,9.783 31.157,9.391 31.333,9.008 C31.389,8.88 31.425,8.722 31.432,8.563 L31.559,5.593 L32.439,5.631 L32.289,9.148 L32.289,9.148 Z"></path>
                <path d="M34.187,8.258 C34.184,9.447 34.933,9.952 35.813,9.97 C36.442,9.984 36.824,9.88 37.157,9.746 L37.294,10.379 C36.982,10.513 36.448,10.662 35.679,10.648 C34.19,10.619 33.32,9.622 33.349,8.163 C33.378,6.704 34.26,5.571 35.669,5.6 C37.248,5.631 37.641,7.03 37.623,7.918 C37.62,8.098 37.597,8.237 37.585,8.327 L34.187,8.258 L34.187,8.258 Z M36.778,7.679 C36.799,7.12 36.576,6.245 35.587,6.226 C34.698,6.208 34.292,7.02 34.21,7.628 L36.778,7.679 L36.778,7.679 Z"></path>
                <path d="M44.195,10.383 C43.966,10.505 43.458,10.669 42.808,10.675 C41.349,10.69 40.39,9.708 40.376,8.229 C40.362,6.741 41.372,5.652 42.951,5.636 C43.471,5.631 43.931,5.757 44.173,5.875 L43.979,6.557 C43.768,6.44 43.437,6.331 42.958,6.336 C41.849,6.346 41.256,7.171 41.266,8.181 C41.276,9.3 42.002,9.984 42.962,9.974 C43.462,9.97 43.791,9.836 44.039,9.725 L44.195,10.383 L44.195,10.383 Z"></path>
                <path d="M45.023,3.438 L45.902,3.417 L46.075,10.514 L45.196,10.535 L45.023,3.438 L45.023,3.438 Z"></path>
                <path d="M48.309,4.236 C48.33,4.536 48.118,4.783 47.768,4.796 C47.458,4.807 47.23,4.574 47.219,4.275 C47.208,3.964 47.43,3.716 47.75,3.707 C48.079,3.694 48.297,3.927 48.309,4.236 L48.309,4.236 Z M47.546,10.468 L47.376,5.63 L48.256,5.6 L48.425,10.437 L47.546,10.468 L47.546,10.468 Z"></path>
                <path d="M50.214,8.104 C50.296,9.292 51.08,9.741 51.958,9.695 C52.587,9.663 52.96,9.533 53.282,9.377 L53.465,9.997 C53.163,10.153 52.642,10.341 51.874,10.381 C50.387,10.458 49.448,9.527 49.373,8.069 C49.298,6.611 50.096,5.42 51.503,5.345 C53.08,5.263 53.571,6.628 53.617,7.517 C53.626,7.698 53.614,7.837 53.608,7.927 L50.214,8.104 L50.214,8.104 Z M52.756,7.342 C52.737,6.782 52.452,5.927 51.464,5.978 C50.576,6.026 50.229,6.864 50.191,7.475 L52.756,7.342 L52.756,7.342 Z"></path>
                <path d="M54.544,6.597 C54.506,6.099 54.464,5.693 54.404,5.295 L55.181,5.235 L55.292,6.028 L55.312,6.027 C55.516,5.549 56.04,5.058 56.837,4.998 C57.504,4.947 58.571,5.267 58.698,6.92 L58.919,9.8 L58.042,9.867 L57.829,7.087 C57.769,6.31 57.431,5.685 56.604,5.748 C56.026,5.792 55.609,6.234 55.497,6.734 C55.466,6.845 55.457,6.998 55.469,7.146 L55.691,10.045 L54.815,10.112 L54.544,6.597 L54.544,6.597 Z"></path>
                <path d="M60.726,3.367 L60.862,4.75 L62.115,4.627 L62.18,5.294 L60.927,5.417 L61.182,8.014 C61.241,8.612 61.443,8.932 61.931,8.884 C62.16,8.863 62.326,8.817 62.432,8.776 L62.536,9.428 C62.374,9.514 62.11,9.59 61.772,9.623 C61.364,9.663 61.023,9.565 60.791,9.348 C60.517,9.115 60.385,8.696 60.33,8.127 L60.072,5.501 L59.326,5.574 L59.261,4.907 L60.007,4.834 L59.894,3.68 L60.726,3.367 L60.726,3.367 Z"></path>
                <path d="M63.694,7.05 C63.854,8.231 64.666,8.627 65.54,8.526 C66.166,8.452 66.531,8.297 66.842,8.12 L67.065,8.727 C66.773,8.904 66.266,9.123 65.501,9.214 C64.021,9.389 63.022,8.52 62.85,7.069 C62.678,5.618 63.398,4.376 64.798,4.21 C66.367,4.024 66.948,5.356 67.052,6.24 C67.073,6.419 67.07,6.559 67.071,6.65 L63.694,7.05 L63.694,7.05 Z M66.183,6.121 C66.127,5.562 65.787,4.726 64.803,4.844 C63.919,4.948 63.628,5.809 63.63,6.423 L66.183,6.121 L66.183,6.121 Z"></path>
                <path d="M68.169,7.875 C68.45,8.007 68.931,8.121 69.366,8.061 C70,7.972 70.253,7.614 70.197,7.217 C70.139,6.801 69.859,6.609 69.182,6.46 C68.277,6.274 67.805,5.856 67.724,5.281 C67.616,4.509 68.151,3.787 69.181,3.642 C69.666,3.575 70.112,3.654 70.401,3.775 L70.272,4.439 C70.067,4.345 69.698,4.237 69.252,4.298 C68.737,4.37 68.492,4.707 68.542,5.065 C68.598,5.461 68.91,5.598 69.567,5.75 C70.443,5.95 70.927,6.307 71.027,7.02 C71.145,7.863 70.575,8.547 69.436,8.708 C68.911,8.781 68.408,8.721 68.043,8.569 L68.169,7.875 L68.169,7.875 Z"></path>
            </g>
        </g>
    </g>
</svg>