<?xml version="1.0" encoding="UTF-8" standalone="no"?>
<svg width="97px" height="57px" viewBox="0 0 97 57" version="1.1" xmlns="http://www.w3.org/2000/svg" xmlns:xlink="http://www.w3.org/1999/xlink" xmlns:sketch="http://www.bohemiancoding.com/sketch/ns">
    <!-- Generator: Sketch 3.4 (15588) - http://www.bohemiancoding.com/sketch -->
    <title>Group</title>
    <desc>Created with Sketch.</desc>
    <defs></defs>
    <g id="Page-1" stroke="none" stroke-width="1" fill="none" fill-rule="evenodd" sketch:type="MSPage">
        <g id="Group" sketch:type="MSLayerGroup">
            <path d="M96.088,0.223 C96.088,0.223 58.18,17.889 0.913,0.223 L6.444,49.357 C6.444,49.357 45.002,65.813 90.557,49.357 L96.088,0.223 L96.088,0.223 Z" id="Shape" fill="#28AF8E" sketch:type="MSShapeGroup"></path>
            <g transform="translate(72.000000, 23.000000)" id="Shape" fill="#FFFFFF" sketch:type="MSShapeGroup">
                <path d="M7.167,13.093 C3.664,13.093 0.813,10.242 0.813,6.739 C0.813,3.235 3.664,0.385 7.167,0.385 C10.67,0.385 13.521,3.237 13.521,6.739 C13.521,10.241 10.67,13.093 7.167,13.093 L7.167,13.093 Z M7.167,0.914 C3.956,0.914 1.343,3.527 1.343,6.739 C1.343,9.95 3.956,12.563 7.167,12.563 C10.378,12.563 12.991,9.95 12.991,6.739 C12.991,3.527 10.378,0.914 7.167,0.914 L7.167,0.914 Z"></path>
                <path d="M7.167,11.504 C4.712,11.504 2.931,9.389 2.931,6.474 C2.931,6.328 3.05,6.209 3.196,6.209 L11.138,6.209 C11.284,6.209 11.403,6.328 11.403,6.474 C11.402,9.389 9.621,11.504 7.167,11.504 L7.167,11.504 Z M3.465,6.739 C3.564,9.246 5.058,10.973 7.166,10.973 C9.274,10.973 10.769,9.244 10.867,6.739 L3.465,6.739 L3.465,6.739 L3.465,6.739 Z"></path>
                <path d="M10.873,7.798 L3.46,7.798 C3.314,7.798 3.195,7.679 3.195,7.533 C3.195,7.387 3.314,7.267 3.46,7.267 L10.873,7.267 C11.019,7.267 11.138,7.385 11.138,7.533 C11.138,7.679 11.019,7.798 10.873,7.798 L10.873,7.798 Z"></path>
                <path d="M5.578,5.15 C5.271,5.15 5.048,4.816 5.048,4.355 C5.048,3.894 5.271,3.56 5.578,3.56 C5.885,3.56 6.107,3.894 6.107,4.355 C6.107,4.816 5.885,5.15 5.578,5.15 L5.578,5.15 Z"></path>
                <path d="M8.755,5.15 C8.448,5.15 8.226,4.816 8.226,4.355 C8.226,3.894 8.449,3.56 8.755,3.56 C9.061,3.56 9.285,3.894 9.285,4.355 C9.285,4.816 9.062,5.15 8.755,5.15 L8.755,5.15 Z"></path>
            </g>
            <g transform="translate(26.000000, 26.000000)" id="Shape" fill="#FFFFFF" sketch:type="MSShapeGroup">
                <path d="M1.189,0.716 C1.725,0.701 2.356,0.719 3.041,0.803 C4.281,0.955 5.128,1.352 5.646,1.97 C6.174,2.588 6.426,3.406 6.293,4.487 C6.159,5.578 5.711,6.428 5.011,6.966 C4.309,7.514 3.236,7.724 1.937,7.565 C1.322,7.49 0.81,7.395 0.38,7.294 L1.189,0.716 L1.189,0.716 Z M1.324,6.733 C1.537,6.798 1.854,6.847 2.191,6.889 C4.036,7.117 5.165,6.207 5.387,4.404 C5.591,2.828 4.822,1.716 2.997,1.492 C2.551,1.437 2.208,1.434 1.974,1.457 L1.324,6.733 L1.324,6.733 Z"></path>
                <path d="M7.836,5.877 C7.761,7.065 8.48,7.613 9.357,7.683 C9.985,7.734 10.372,7.655 10.712,7.54 L10.812,8.18 C10.492,8.295 9.951,8.412 9.184,8.351 C7.699,8.234 6.89,7.186 7.006,5.732 C7.122,4.278 8.07,3.2 9.475,3.311 C11.049,3.436 11.357,4.854 11.287,5.743 C11.273,5.922 11.242,6.058 11.225,6.148 L7.836,5.877 L7.836,5.877 Z M10.457,5.454 C10.511,4.896 10.341,4.011 9.355,3.933 C8.468,3.864 8.015,4.65 7.897,5.25 L10.457,5.454 L10.457,5.454 Z"></path>
                <path d="M12.636,1.377 L13.514,1.424 L13.135,8.509 L12.257,8.462 L12.636,1.377 L12.636,1.377 Z"></path>
                <path d="M15.293,6.35 C15.279,7.54 16.024,8.052 16.903,8.079 C17.533,8.098 17.916,7.998 18.25,7.868 L18.382,8.502 C18.068,8.633 17.534,8.777 16.764,8.755 C15.275,8.712 14.414,7.707 14.456,6.247 C14.498,4.788 15.391,3.664 16.8,3.705 C18.379,3.751 18.758,5.152 18.733,6.041 C18.728,6.222 18.704,6.36 18.691,6.45 L15.293,6.35 L15.293,6.35 Z M17.891,5.795 C17.917,5.235 17.703,4.359 16.713,4.33 C15.824,4.305 15.41,5.113 15.322,5.721 L17.891,5.795 L17.891,5.795 Z M18.217,1.764 L16.956,3.159 L16.327,3.139 L17.248,1.737 L18.217,1.764 L18.217,1.764 Z"></path>
                <path d="M20.834,2.507 C20.843,2.807 20.623,3.046 20.272,3.045 C19.962,3.044 19.743,2.804 19.744,2.504 C19.745,2.193 19.975,1.954 20.295,1.955 C20.626,1.956 20.835,2.197 20.834,2.507 L20.834,2.507 Z M19.835,8.7 L19.85,3.863 L20.73,3.866 L20.715,8.703 L19.835,8.7 L19.835,8.7 Z"></path>
                <path d="M23.211,2.452 L23.234,3.842 L24.493,3.821 L24.504,4.491 L23.245,4.512 L23.288,7.12 C23.298,7.72 23.474,8.057 23.964,8.048 C24.193,8.044 24.363,8.012 24.472,7.981 L24.523,8.639 C24.354,8.712 24.085,8.766 23.745,8.773 C23.335,8.78 23.003,8.656 22.789,8.419 C22.535,8.163 22.438,7.735 22.428,7.165 L22.384,4.526 L21.634,4.539 L21.623,3.869 L22.373,3.857 L22.353,2.697 L23.211,2.452 L23.211,2.452 Z"></path>
                <path d="M28.357,8.511 L28.26,7.906 L28.23,7.908 C27.977,8.3 27.472,8.662 26.783,8.693 C25.804,8.736 25.273,8.069 25.242,7.369 C25.19,6.2 26.201,5.515 28.071,5.441 L28.067,5.34 C28.049,4.941 27.907,4.225 26.918,4.269 C26.468,4.29 26.004,4.451 25.674,4.685 L25.448,4.115 C25.836,3.838 26.408,3.641 27.018,3.615 C28.497,3.55 28.902,4.544 28.944,5.511 L29.024,7.322 C29.043,7.742 29.081,8.15 29.155,8.476 L28.357,8.511 L28.357,8.511 Z M28.118,6.048 C27.158,6.071 26.076,6.289 26.118,7.229 C26.143,7.798 26.535,8.051 26.985,8.033 C27.614,8.005 27.997,7.588 28.118,7.172 C28.144,7.081 28.16,6.981 28.156,6.89 L28.118,6.048 L28.118,6.048 Z"></path>
                <path d="M30.121,1.292 L30.999,1.231 L31.486,8.317 L30.608,8.378 L30.121,1.292 L30.121,1.292 Z"></path>
                <path d="M33.328,5.91 C33.458,7.094 34.262,7.512 35.138,7.43 C35.766,7.371 36.134,7.226 36.45,7.056 L36.658,7.669 C36.363,7.838 35.849,8.047 35.082,8.118 C33.598,8.257 32.62,7.363 32.483,5.908 C32.347,4.454 33.097,3.226 34.502,3.096 C36.076,2.95 36.624,4.294 36.707,5.182 C36.724,5.362 36.717,5.502 36.715,5.593 L33.328,5.91 L33.328,5.91 Z M35.839,5.042 C35.797,4.483 35.477,3.639 34.49,3.73 C33.603,3.812 33.291,4.667 33.278,5.281 L35.839,5.042 L35.839,5.042 Z"></path>
                <path d="M37.928,6.819 C38.207,6.955 38.685,7.077 39.122,7.022 C39.757,6.943 40.015,6.587 39.965,6.192 C39.913,5.776 39.637,5.579 38.963,5.421 C38.062,5.221 37.596,4.796 37.524,4.221 C37.428,3.449 37.973,2.736 39.005,2.607 C39.491,2.545 39.935,2.631 40.222,2.756 L40.083,3.418 C39.88,3.322 39.513,3.207 39.066,3.263 C38.55,3.327 38.3,3.66 38.344,4.018 C38.393,4.414 38.703,4.557 39.358,4.717 C40.231,4.931 40.709,5.294 40.798,6.008 C40.903,6.852 40.322,7.529 39.182,7.67 C38.656,7.735 38.154,7.667 37.792,7.511 L37.928,6.819 L37.928,6.819 Z"></path>
            </g>
        </g>
    </g>
</svg>