<?xml version="1.0" encoding="UTF-8" standalone="no"?>
<svg width="65px" height="19px" viewBox="0 0 65 19" version="1.1" xmlns="http://www.w3.org/2000/svg" xmlns:xlink="http://www.w3.org/1999/xlink" xmlns:sketch="http://www.bohemiancoding.com/sketch/ns">
    <!-- Generator: Sketch 3.4 (15588) - http://www.bohemiancoding.com/sketch -->
    <title>Group</title>
    <desc>Created with Sketch.</desc>
    <defs></defs>
    <g id="Page-1" stroke="none" stroke-width="1" fill="none" fill-rule="evenodd" sketch:type="MSPage">
        <g id="Group" sketch:type="MSLayerGroup">
            <path d="M4.131,6.304 L63.67,0.646 L64.855,13.091 L5.316,18.747 L0.171,13.95 L4.131,6.304 Z" id="Shape" fill="#73123A" sketch:type="MSShapeGroup"></path>
            <g transform="translate(15.000000, 6.000000)" id="Shape" fill="#FFFFFF" sketch:type="MSShapeGroup">
                <path d="M4.223,7.939 C4.005,8.079 3.512,8.285 2.866,8.344 C1.413,8.478 0.376,7.579 0.24,6.108 C0.103,4.626 1.02,3.457 2.593,3.31 C3.11,3.262 3.579,3.35 3.829,3.448 L3.692,4.142 C3.472,4.041 3.133,3.962 2.656,4.007 C1.552,4.11 1.03,4.981 1.123,5.986 C1.226,7.1 2.006,7.72 2.961,7.632 C3.459,7.586 3.774,7.427 4.014,7.294 L4.223,7.939 L4.223,7.939 Z"></path>
                <path d="M4.615,0.957 L5.491,0.876 L6.143,7.942 L5.267,8.023 L4.615,0.957 L4.615,0.957 Z"></path>
                <path d="M8.023,1.546 C8.061,1.843 7.863,2.103 7.515,2.135 C7.206,2.163 6.965,1.946 6.938,1.646 C6.91,1.338 7.117,1.08 7.435,1.049 C7.763,1.019 7.995,1.237 8.023,1.546 L8.023,1.546 Z M7.617,7.807 L7.173,2.991 L8.049,2.91 L8.493,7.726 L7.617,7.807 L7.617,7.807 Z"></path>
                <path d="M10.227,5.297 C10.356,6.481 11.158,6.899 12.034,6.818 C12.661,6.759 13.028,6.616 13.345,6.446 L13.552,7.058 C13.256,7.226 12.743,7.434 11.977,7.504 C10.495,7.642 9.519,6.748 9.384,5.294 C9.25,3.842 10,2.618 11.404,2.488 C12.977,2.342 13.522,3.688 13.604,4.574 C13.621,4.753 13.614,4.893 13.612,4.984 L10.227,5.297 L10.227,5.297 Z M12.737,4.434 C12.696,3.875 12.377,3.033 11.391,3.122 C10.505,3.204 10.193,4.056 10.179,4.669 L12.737,4.434 L12.737,4.434 Z"></path>
                <path d="M14.612,3.618 C14.566,3.12 14.518,2.713 14.452,2.317 L15.228,2.246 L15.351,3.038 L15.371,3.036 C15.567,2.556 16.084,2.057 16.881,1.983 C17.548,1.921 18.619,2.223 18.772,3.876 L19.038,6.752 L18.162,6.833 L17.905,4.057 C17.834,3.282 17.486,2.661 16.66,2.738 C16.082,2.792 15.672,3.24 15.567,3.742 C15.538,3.854 15.532,4.007 15.546,4.156 L15.814,7.052 L14.938,7.133 L14.612,3.618 L14.612,3.618 Z"></path>
                <path d="M20.905,0.327 L21.033,1.71 L22.287,1.595 L22.349,2.262 L21.095,2.377 L21.334,4.975 C21.39,5.573 21.59,5.895 22.078,5.85 C22.307,5.829 22.474,5.785 22.58,5.745 L22.681,6.397 C22.518,6.483 22.254,6.556 21.915,6.587 C21.507,6.625 21.166,6.525 20.936,6.307 C20.664,6.072 20.535,5.652 20.482,5.083 L20.24,2.456 L19.493,2.525 L19.431,1.858 L20.178,1.789 L20.072,0.635 L20.905,0.327 L20.905,0.327 Z"></path>
                <path d="M23.939,4.031 C24.068,5.214 24.87,5.632 25.746,5.551 C26.373,5.493 26.74,5.349 27.057,5.179 L27.264,5.793 C26.968,5.96 26.455,6.168 25.689,6.239 C24.207,6.376 23.231,5.482 23.097,4.028 C22.962,2.576 23.712,1.351 25.116,1.221 C26.688,1.076 27.234,2.421 27.316,3.307 C27.333,3.487 27.326,3.627 27.324,3.718 L23.939,4.031 L23.939,4.031 Z M26.449,3.168 C26.408,2.609 26.089,1.766 25.103,1.856 C24.217,1.937 23.905,2.79 23.891,3.403 L26.449,3.168 L26.449,3.168 Z"></path>
                <path d="M28.446,4.98 C28.719,5.126 29.194,5.261 29.632,5.221 C30.269,5.161 30.538,4.817 30.502,4.417 C30.463,4 30.193,3.794 29.524,3.614 C28.629,3.385 28.177,2.946 28.125,2.369 C28.053,1.593 28.621,0.897 29.656,0.802 C30.143,0.757 30.584,0.859 30.868,0.991 L30.708,1.648 C30.508,1.544 30.145,1.419 29.696,1.46 C29.179,1.508 28.918,1.833 28.951,2.191 C28.988,2.587 29.293,2.742 29.942,2.921 C30.807,3.162 31.274,3.54 31.34,4.257 C31.418,5.105 30.816,5.761 29.671,5.866 C29.144,5.915 28.644,5.83 28.287,5.662 L28.446,4.98 L28.446,4.98 Z"></path>
            </g>
        </g>
    </g>
</svg>