<?xml version="1.0" encoding="UTF-8" standalone="no"?>
<svg width="60px" height="17px" viewBox="0 0 60 17" version="1.1" xmlns="http://www.w3.org/2000/svg" xmlns:xlink="http://www.w3.org/1999/xlink" xmlns:sketch="http://www.bohemiancoding.com/sketch/ns">
    <!-- Generator: Sketch 3.4 (15588) - http://www.bohemiancoding.com/sketch -->
    <title>Group</title>
    <desc>Created with Sketch.</desc>
    <defs></defs>
    <g id="Page-1" stroke="none" stroke-width="1" fill="none" fill-rule="evenodd" sketch:type="MSPage">
        <g id="Group" sketch:type="MSLayerGroup">
            <path d="M54.902,16.98 L0.147,12.832 L0.854,0.353 L55.607,4.5 L59.971,10.02 L54.902,16.98 Z" id="Shape" fill="#73123A" sketch:type="MSShapeGroup"></path>
            <g transform="translate(14.000000, 4.000000)" id="Shape" fill="#FFFFFF" sketch:type="MSShapeGroup">
                <path d="M3.914,6.977 L3.886,6.365 L3.857,6.363 C3.561,6.722 3.019,7.026 2.332,6.977 C1.354,6.911 0.904,6.187 0.953,5.49 C1.034,4.323 2.116,3.758 3.978,3.896 L3.985,3.796 C4.013,3.399 3.955,2.671 2.967,2.603 C2.518,2.573 2.039,2.679 1.685,2.874 L1.526,2.281 C1.943,2.051 2.532,1.922 3.142,1.964 C4.617,2.068 4.906,3.099 4.838,4.067 L4.713,5.872 C4.684,6.291 4.675,6.701 4.713,7.034 L3.914,6.977 L3.914,6.977 Z M3.955,4.505 C2.999,4.418 1.901,4.513 1.835,5.449 C1.795,6.016 2.156,6.313 2.604,6.345 C3.233,6.389 3.66,6.018 3.829,5.618 C3.864,5.53 3.891,5.431 3.897,5.343 L3.955,4.505 L3.955,4.505 Z"></path>
                <path d="M6.543,0.047 L7.421,0.109 L6.928,7.188 L6.05,7.126 L6.543,0.047 L6.543,0.047 Z"></path>
                <path d="M12.534,6.255 C12.499,6.754 12.478,7.193 12.482,7.573 L11.705,7.518 L11.71,6.728 L11.689,6.726 C11.434,7.098 10.889,7.573 10.032,7.512 C9.274,7.459 8.395,6.978 8.513,5.283 L8.709,2.462 L9.587,2.524 L9.401,5.197 C9.337,6.114 9.573,6.752 10.37,6.806 C10.959,6.847 11.396,6.466 11.583,6.088 C11.642,5.962 11.682,5.806 11.693,5.647 L11.899,2.685 L12.777,2.747 L12.534,6.255 L12.534,6.255 Z"></path>
                <path d="M14.145,4.153 C14.18,3.654 14.198,3.245 14.196,2.842 L14.965,2.897 L14.95,3.676 L14.98,3.679 C15.282,3.24 15.761,2.841 16.558,2.898 C17.216,2.944 17.687,3.377 17.857,3.96 L17.877,3.961 C18.046,3.702 18.249,3.506 18.46,3.371 C18.764,3.172 19.091,3.074 19.55,3.106 C20.189,3.15 21.106,3.633 20.989,5.308 L20.791,8.151 L19.934,8.09 L20.124,5.36 C20.188,4.431 19.889,3.849 19.181,3.8 C18.683,3.765 18.267,4.108 18.089,4.526 C18.041,4.642 17.999,4.799 17.988,4.961 L17.78,7.941 L16.923,7.88 L17.124,4.988 C17.178,4.219 16.878,3.637 16.209,3.592 C15.662,3.554 15.232,3.964 15.062,4.395 C15.003,4.521 14.972,4.667 14.962,4.819 L14.759,7.73 L13.902,7.669 L14.145,4.153 L14.145,4.153 Z"></path>
                <path d="M22.466,4.733 C22.501,4.234 22.519,3.825 22.517,3.422 L23.294,3.476 L23.289,4.279 L23.309,4.28 C23.58,3.839 24.17,3.427 24.968,3.484 C25.635,3.531 26.644,4.002 26.53,5.657 L26.329,8.538 L25.452,8.476 L25.645,5.695 C25.7,4.918 25.455,4.25 24.627,4.192 C24.049,4.151 23.572,4.529 23.388,5.006 C23.34,5.112 23.31,5.261 23.3,5.41 L23.098,8.311 L22.221,8.249 L22.466,4.733 L22.466,4.733 Z"></path>
                <path d="M32.295,6.489 C32.171,8.274 30.88,8.966 29.713,8.885 C28.408,8.794 27.468,7.766 27.574,6.24 C27.687,4.625 28.808,3.752 30.144,3.844 C31.53,3.942 32.397,5.014 32.295,6.489 L32.295,6.489 Z M28.464,6.272 C28.39,7.33 28.943,8.168 29.799,8.228 C30.637,8.288 31.32,7.542 31.396,6.457 C31.454,5.64 31.117,4.574 30.081,4.502 C29.041,4.43 28.528,5.355 28.464,6.272 L28.464,6.272 Z"></path>
                <path d="M33.176,8.114 C33.423,8.302 33.869,8.511 34.308,8.543 C34.947,8.588 35.268,8.289 35.295,7.891 C35.324,7.472 35.092,7.226 34.46,6.943 C33.614,6.573 33.238,6.066 33.278,5.488 C33.333,4.71 34.005,4.116 35.043,4.188 C35.53,4.221 35.949,4.39 36.208,4.57 L35.943,5.192 C35.762,5.058 35.424,4.876 34.975,4.843 C34.456,4.807 34.148,5.086 34.121,5.446 C34.094,5.844 34.37,6.045 34.981,6.328 C35.794,6.705 36.195,7.154 36.144,7.872 C36.085,8.72 35.386,9.272 34.241,9.192 C33.713,9.155 33.232,8.991 32.907,8.767 L33.176,8.114 L33.176,8.114 Z"></path>
            </g>
        </g>
    </g>
</svg>