<?xml version="1.0" encoding="UTF-8" standalone="no"?>
<svg width="87px" height="21px" viewBox="0 0 87 21" version="1.1" xmlns="http://www.w3.org/2000/svg" xmlns:xlink="http://www.w3.org/1999/xlink" xmlns:sketch="http://www.bohemiancoding.com/sketch/ns">
    <!-- Generator: Sketch 3.4 (15588) - http://www.bohemiancoding.com/sketch -->
    <title>Group</title>
    <desc>Created with Sketch.</desc>
    <defs></defs>
    <g id="Page-1" stroke="none" stroke-width="1" fill="none" fill-rule="evenodd" sketch:type="MSPage">
        <g id="Group" sketch:type="MSLayerGroup">
            <path d="M4.407,8.343 L85.625,0.502 L86.811,12.946 L5.592,20.786 L0.447,15.989 L4.407,8.343 Z" id="Shape" fill="#73123A" sketch:type="MSShapeGroup"></path>
            <g transform="translate(15.000000, 6.000000)" id="Shape" fill="#FFFFFF" sketch:type="MSShapeGroup">
                <path d="M4.461,9.433 L4.44,9.435 C4.225,9.936 3.722,10.365 2.947,10.435 C1.822,10.539 0.816,9.65 0.681,8.185 C0.515,6.384 1.606,5.482 2.621,5.387 C3.367,5.319 3.898,5.64 4.181,6.086 L4.201,6.084 L4.164,5.355 L4.99,5.279 C5.008,5.689 5.036,6.108 5.082,6.605 L5.587,12.069 L4.711,12.15 L4.461,9.433 L4.461,9.433 Z M4.265,7.312 C4.254,7.192 4.231,7.053 4.191,6.948 C4.012,6.422 3.503,6.008 2.845,6.068 C1.94,6.152 1.463,6.967 1.564,8.052 C1.652,9.007 2.187,9.801 3.152,9.711 C3.719,9.659 4.174,9.266 4.318,8.641 C4.347,8.518 4.361,8.346 4.349,8.216 L4.265,7.312 L4.265,7.312 Z"></path>
                <path d="M10.761,8.279 C10.807,8.776 10.857,9.213 10.922,9.589 L10.146,9.66 L10.023,8.879 L10.003,8.881 C9.811,9.29 9.35,9.844 8.493,9.923 C7.736,9.993 6.793,9.658 6.637,7.967 L6.377,5.152 L7.252,5.071 L7.498,7.738 C7.583,8.654 7.919,9.246 8.715,9.172 C9.302,9.118 9.673,8.672 9.796,8.269 C9.833,8.136 9.849,7.974 9.834,7.814 L9.562,4.86 L10.438,4.779 L10.761,8.279 L10.761,8.279 Z"></path>
                <path d="M12.618,7.164 C12.746,8.346 13.549,8.764 14.424,8.684 C15.052,8.625 15.419,8.483 15.736,8.312 L15.942,8.925 C15.647,9.093 15.134,9.301 14.368,9.371 C12.886,9.508 11.909,8.614 11.775,7.161 C11.641,5.708 12.391,4.484 13.795,4.355 C15.367,4.209 15.913,5.553 15.995,6.44 C16.011,6.62 16.004,6.76 16.003,6.85 L12.618,7.164 L12.618,7.164 Z M15.127,6.3 C15.086,5.741 14.767,4.899 13.782,4.988 C12.896,5.07 12.583,5.923 12.57,6.536 L15.127,6.3 L15.127,6.3 Z"></path>
                <path d="M19.331,3.954 L20.526,6.575 C20.726,6.998 20.891,7.384 21.028,7.772 L21.057,7.769 C21.13,7.361 21.233,6.951 21.352,6.498 L22.038,3.705 L22.954,3.62 L21.508,8.611 L20.671,8.687 L18.396,4.041 L19.331,3.954 L19.331,3.954 Z"></path>
                <path d="M28.137,6.675 C28.183,7.173 28.233,7.611 28.298,7.987 L27.522,8.057 L27.399,7.277 L27.379,7.278 C27.186,7.688 26.725,8.242 25.869,8.321 C25.113,8.389 24.169,8.055 24.013,6.365 L23.753,3.549 L24.628,3.468 L24.875,6.135 C24.959,7.051 25.295,7.642 26.091,7.57 C26.678,7.515 27.049,7.07 27.172,6.667 C27.209,6.533 27.225,6.372 27.21,6.212 L26.938,3.257 L27.813,3.176 L28.137,6.675 L28.137,6.675 Z"></path>
                <path d="M29.993,5.561 C30.123,6.744 30.925,7.162 31.8,7.081 C32.428,7.023 32.795,6.88 33.111,6.709 L33.318,7.323 C33.022,7.491 32.509,7.698 31.744,7.768 C30.262,7.906 29.285,7.011 29.151,5.558 C29.017,4.106 29.767,2.881 31.171,2.752 C32.743,2.606 33.289,3.951 33.37,4.837 C33.387,5.016 33.38,5.157 33.379,5.248 L29.993,5.561 L29.993,5.561 Z M32.503,4.696 C32.462,4.136 32.143,3.294 31.158,3.384 C30.271,3.466 29.959,4.32 29.945,4.932 L32.503,4.696 L32.503,4.696 Z"></path>
                <path d="M34.05,0.328 L34.926,0.247 L35.578,7.312 L34.702,7.392 L34.05,0.328 L34.05,0.328 Z"></path>
                <path d="M36.946,2.329 L38.141,4.949 C38.34,5.372 38.506,5.758 38.643,6.147 L38.672,6.143 C38.745,5.735 38.848,5.325 38.967,4.872 L39.653,2.078 L40.568,1.993 L39.123,6.984 L38.286,7.061 L36.011,2.414 L36.946,2.329 L36.946,2.329 Z"></path>
                <path d="M42.022,4.45 C42.151,5.632 42.953,6.05 43.829,5.97 C44.456,5.911 44.823,5.768 45.14,5.598 L45.347,6.211 C45.051,6.379 44.538,6.587 43.772,6.657 C42.29,6.794 41.314,5.9 41.18,4.447 C41.045,2.994 41.795,1.769 43.199,1.64 C44.772,1.494 45.317,2.839 45.399,3.725 C45.416,3.906 45.409,4.046 45.407,4.136 L42.022,4.45 L42.022,4.45 Z M44.532,3.586 C44.491,3.027 44.172,2.184 43.186,2.274 C42.3,2.356 41.988,3.209 41.974,3.822 L44.532,3.586 L44.532,3.586 Z"></path>
                <path d="M46.406,2.771 C46.36,2.273 46.313,1.867 46.246,1.47 L47.022,1.399 L47.146,2.191 L47.166,2.189 C47.362,1.71 47.879,1.21 48.675,1.135 C49.342,1.073 50.413,1.376 50.566,3.03 L50.832,5.906 L49.956,5.987 L49.7,3.21 C49.628,2.435 49.28,1.814 48.454,1.89 C47.877,1.945 47.467,2.393 47.362,2.894 C47.333,3.008 47.326,3.161 47.34,3.308 L47.608,6.204 L46.732,6.284 L46.406,2.771 L46.406,2.771 Z"></path>
            </g>
        </g>
    </g>
</svg>