<?xml version="1.0" encoding="UTF-8" standalone="no"?>
<svg width="95px" height="19px" viewBox="0 0 95 19" version="1.1" xmlns="http://www.w3.org/2000/svg" xmlns:xlink="http://www.w3.org/1999/xlink" xmlns:sketch="http://www.bohemiancoding.com/sketch/ns">
    <!-- Generator: Sketch 3.4 (15588) - http://www.bohemiancoding.com/sketch -->
    <title>Group</title>
    <desc>Created with Sketch.</desc>
    <defs></defs>
    <g id="Page-1" stroke="none" stroke-width="1" fill="none" fill-rule="evenodd" sketch:type="MSPage">
        <g id="Group" sketch:type="MSLayerGroup">
            <path d="M89.233,18.103 L0.178,12.562 L0.644,0.071 L89.698,5.61 L94.167,11.045 L89.233,18.103 Z" id="Shape" fill="#73123A" sketch:type="MSShapeGroup"></path>
            <g transform="translate(14.000000, 5.000000)" id="Shape" fill="#FFFFFF" sketch:type="MSShapeGroup">
                <path d="M4.562,4.646 L4.542,4.644 C4.259,5.112 3.7,5.462 2.921,5.423 C1.793,5.366 0.924,4.342 0.998,2.874 C1.089,1.067 2.296,0.328 3.315,0.379 C4.064,0.417 4.544,0.812 4.76,1.292 L4.781,1.294 L4.847,0.566 L5.676,0.607 C5.634,1.014 5.604,1.433 5.579,1.932 L5.303,7.412 L4.424,7.368 L4.562,4.646 L4.562,4.646 Z M4.669,2.521 C4.675,2.401 4.672,2.26 4.648,2.15 C4.544,1.603 4.099,1.122 3.44,1.088 C2.532,1.042 1.944,1.783 1.889,2.871 C1.841,3.829 2.258,4.69 3.225,4.739 C3.794,4.766 4.301,4.443 4.531,3.843 C4.577,3.725 4.615,3.557 4.621,3.427 L4.669,2.521 L4.669,2.521 Z"></path>
                <path d="M10.963,4.398 C10.938,4.897 10.926,5.336 10.937,5.716 L10.159,5.677 L10.149,4.886 L10.128,4.885 C9.879,5.263 9.344,5.746 8.486,5.703 C7.727,5.665 6.839,5.199 6.924,3.503 L7.067,0.678 L7.946,0.722 L7.811,3.399 C7.765,4.317 8.014,4.951 8.811,4.991 C9.4,5.019 9.83,4.632 10.01,4.251 C10.066,4.123 10.103,3.965 10.112,3.806 L10.261,0.841 L11.14,0.885 L10.963,4.398 L10.963,4.398 Z"></path>
                <path d="M12.959,3.559 C12.919,4.747 13.653,5.276 14.531,5.32 C15.16,5.351 15.545,5.26 15.883,5.137 L16,5.774 C15.685,5.897 15.147,6.032 14.378,5.994 C12.891,5.919 12.051,4.894 12.125,3.437 C12.199,1.981 13.115,0.875 14.523,0.947 C16.1,1.026 16.449,2.433 16.404,3.323 C16.395,3.503 16.368,3.64 16.353,3.731 L12.959,3.559 L12.959,3.559 Z M15.566,3.06 C15.604,2.501 15.408,1.622 14.42,1.572 C13.532,1.528 13.101,2.326 13.001,2.93 L15.566,3.06 L15.566,3.06 Z"></path>
                <path d="M19.645,2.824 C19.674,2.255 19.688,1.764 19.681,1.314 L20.45,1.352 L20.432,2.302 L20.472,2.304 C20.723,1.666 21.273,1.283 21.862,1.314 C21.963,1.319 22.031,1.333 22.111,1.357 L22.069,2.184 C21.981,2.161 21.891,2.146 21.771,2.139 C21.153,2.109 20.689,2.555 20.537,3.208 C20.512,3.325 20.485,3.465 20.477,3.614 L20.347,6.19 L19.478,6.146 L19.645,2.824 L19.645,2.824 Z"></path>
                <path d="M23.247,4.076 C23.207,5.264 23.941,5.792 24.82,5.837 C25.448,5.868 25.833,5.778 26.17,5.654 L26.288,6.291 C25.972,6.415 25.435,6.548 24.666,6.51 C23.179,6.435 22.339,5.411 22.413,3.954 C22.487,2.497 23.403,1.392 24.81,1.463 C26.387,1.542 26.737,2.951 26.692,3.84 C26.683,4.019 26.656,4.158 26.641,4.247 L23.247,4.076 L23.247,4.076 Z M25.854,3.577 C25.892,3.017 25.696,2.139 24.707,2.089 C23.819,2.044 23.389,2.843 23.289,3.448 L25.854,3.577 L25.854,3.577 Z"></path>
                <path d="M31.1,6.553 C30.865,6.661 30.348,6.796 29.698,6.763 C28.24,6.691 27.343,5.655 27.417,4.176 C27.492,2.69 28.564,1.662 30.141,1.741 C30.661,1.766 31.113,1.921 31.346,2.052 L31.113,2.721 C30.909,2.591 30.586,2.464 30.106,2.442 C28.999,2.384 28.357,3.173 28.307,4.181 C28.251,5.299 28.936,6.026 29.893,6.074 C30.393,6.098 30.729,5.986 30.983,5.887 L31.1,6.553 L31.1,6.553 Z"></path>
                <path d="M36.558,4.546 C36.468,6.333 35.191,7.049 34.023,6.99 C32.715,6.925 31.755,5.915 31.833,4.386 C31.915,2.769 33.021,1.874 34.358,1.943 C35.744,2.014 36.632,3.068 36.558,4.546 L36.558,4.546 Z M32.722,4.403 C32.669,5.461 33.237,6.29 34.096,6.333 C34.935,6.376 35.603,5.618 35.658,4.53 C35.699,3.712 35.341,2.653 34.304,2.6 C33.265,2.549 32.768,3.485 32.722,4.403 L32.722,4.403 Z"></path>
                <path d="M37.722,3.534 C37.747,3.035 37.758,2.625 37.748,2.222 L38.516,2.261 L38.517,3.042 L38.547,3.043 C38.84,2.598 39.311,2.191 40.109,2.231 C40.767,2.263 41.248,2.689 41.428,3.266 L41.448,3.267 C41.612,3.006 41.812,2.805 42.019,2.666 C42.32,2.461 42.645,2.357 43.104,2.38 C43.744,2.412 44.668,2.88 44.584,4.556 L44.44,7.403 L43.582,7.359 L43.72,4.625 C43.767,3.696 43.456,3.12 42.747,3.085 C42.248,3.06 41.84,3.409 41.669,3.831 C41.622,3.949 41.584,4.106 41.576,4.267 L41.426,7.251 L40.569,7.208 L40.715,4.312 C40.754,3.543 40.444,2.968 39.776,2.934 C39.226,2.908 38.804,3.327 38.642,3.758 C38.586,3.885 38.558,4.033 38.55,4.184 L38.404,7.098 L37.546,7.055 L37.722,3.534 L37.722,3.534 Z"></path>
                <path d="M45.873,7.477 L46.116,2.647 L46.995,2.691 L46.752,7.523 L45.873,7.477 L45.873,7.477 Z M47.163,1.337 C47.158,1.637 46.926,1.866 46.577,1.849 C46.266,1.833 46.06,1.582 46.076,1.284 C46.092,0.974 46.332,0.747 46.651,0.763 C46.98,0.778 47.179,1.028 47.163,1.337 L47.163,1.337 Z"></path>
                <path d="M48.812,5.363 C48.773,6.551 49.506,7.079 50.385,7.124 C51.013,7.155 51.398,7.065 51.736,6.941 L51.852,7.578 C51.537,7.702 50.999,7.835 50.232,7.797 C48.745,7.722 47.905,6.698 47.977,5.241 C48.051,3.784 48.967,2.679 50.374,2.75 C51.951,2.829 52.3,4.238 52.255,5.127 C52.246,5.306 52.22,5.445 52.204,5.534 L48.812,5.363 L48.812,5.363 Z M51.42,4.864 C51.458,4.304 51.263,3.426 50.274,3.376 C49.385,3.331 48.956,4.13 48.856,4.735 L51.42,4.864 L51.42,4.864 Z"></path>
                <path d="M53.393,4.323 C53.417,3.823 53.428,3.414 53.418,3.011 L54.196,3.05 L54.207,3.852 L54.227,3.853 C54.492,3.407 55.073,2.986 55.872,3.026 C56.54,3.059 57.559,3.51 57.476,5.169 L57.33,8.054 L56.451,8.01 L56.592,5.225 C56.631,4.448 56.373,3.784 55.545,3.742 C54.966,3.714 54.497,4.098 54.322,4.582 C54.276,4.688 54.249,4.839 54.242,4.988 L54.096,7.891 L53.217,7.847 L53.393,4.323 L53.393,4.323 Z"></path>
                <path d="M63.286,1.248 L62.992,7.088 C62.971,7.518 62.956,8.007 62.97,8.338 L62.182,8.298 L62.184,7.458 L62.163,7.456 C61.867,7.982 61.257,8.361 60.469,8.322 C59.301,8.261 58.452,7.228 58.528,5.761 C58.598,4.154 59.647,3.215 60.825,3.276 C61.563,3.312 62.046,3.686 62.245,4.088 L62.265,4.089 L62.411,1.204 L63.286,1.248 L63.286,1.248 Z M62.195,5.426 C62.2,5.318 62.198,5.166 62.174,5.055 C62.071,4.492 61.614,4.006 60.956,3.974 C60.047,3.928 59.469,4.701 59.415,5.767 C59.366,6.746 59.804,7.579 60.752,7.626 C61.341,7.655 61.9,7.294 62.094,6.643 C62.128,6.526 62.145,6.406 62.152,6.265 L62.195,5.426 L62.195,5.426 Z"></path>
                <path d="M67.065,8.544 L67.025,7.932 L66.996,7.93 C66.707,8.296 66.171,8.611 65.482,8.576 C64.503,8.527 64.04,7.811 64.075,7.114 C64.134,5.946 65.205,5.359 67.069,5.464 L67.075,5.364 C67.095,4.965 67.021,4.24 66.034,4.19 C65.584,4.168 65.108,4.284 64.758,4.486 L64.587,3.896 C65,3.658 65.587,3.516 66.196,3.547 C67.673,3.621 67.982,4.647 67.932,5.615 L67.841,7.422 C67.82,7.841 67.82,8.252 67.862,8.584 L67.065,8.544 L67.065,8.544 Z M67.06,6.071 C66.102,6.003 65.006,6.118 64.959,7.055 C64.931,7.624 65.296,7.912 65.745,7.935 C66.374,7.967 66.792,7.587 66.953,7.187 C66.987,7.097 67.013,6.999 67.016,6.91 L67.06,6.071 L67.06,6.071 Z"></path>
                <path d="M69.382,5.128 C69.406,4.629 69.417,4.219 69.407,3.818 L70.184,3.857 L70.196,4.658 L70.216,4.659 C70.481,4.213 71.061,3.791 71.861,3.832 C72.529,3.865 73.548,4.317 73.465,5.974 L73.319,8.86 L72.44,8.816 L72.581,6.031 C72.62,5.253 72.362,4.589 71.534,4.548 C70.955,4.519 70.486,4.905 70.31,5.387 C70.264,5.494 70.238,5.644 70.231,5.793 L70.085,8.697 L69.206,8.653 L69.382,5.128 L69.382,5.128 Z"></path>
            </g>
        </g>
    </g>
</svg>