<?xml version="1.0" encoding="UTF-8" standalone="no"?>
<svg width="89px" height="21px" viewBox="0 0 89 21" version="1.1" xmlns="http://www.w3.org/2000/svg" xmlns:xlink="http://www.w3.org/1999/xlink" xmlns:sketch="http://www.bohemiancoding.com/sketch/ns">
    <!-- Generator: Sketch 3.4 (15588) - http://www.bohemiancoding.com/sketch -->
    <title>Group</title>
    <desc>Created with Sketch.</desc>
    <defs></defs>
    <g id="Page-1" stroke="none" stroke-width="1" fill="none" fill-rule="evenodd" sketch:type="MSPage">
        <g id="Group" sketch:type="MSLayerGroup">
            <path d="M83.132,20.692 L0.107,12.534 L1.331,0.093 L84.354,8.252 L88.483,13.947 L83.132,20.692 Z" id="Shape" fill="#73123A" sketch:type="MSShapeGroup"></path>
            <g transform="translate(7.000000, 2.000000)" id="Shape" fill="#FFFFFF" sketch:type="MSShapeGroup">
                <path d="M0.67,7.805 C0.723,7.479 0.79,6.993 0.832,6.565 L1.404,0.747 L2.268,0.832 L1.971,3.856 L1.992,3.858 C2.351,3.35 2.944,3.057 3.721,3.133 C4.914,3.25 5.662,4.328 5.508,5.789 C5.338,7.51 4.171,8.259 3.097,8.153 C2.401,8.085 1.869,7.76 1.576,7.09 L1.546,7.087 L1.428,7.879 L0.67,7.805 L0.67,7.805 Z M1.766,5.964 C1.755,6.073 1.764,6.185 1.774,6.286 C1.882,6.909 2.349,7.377 2.987,7.439 C3.902,7.529 4.522,6.836 4.632,5.733 C4.727,4.768 4.31,3.894 3.375,3.802 C2.778,3.742 2.182,4.096 1.937,4.744 C1.908,4.842 1.867,4.959 1.852,5.098 L1.766,5.964 L1.766,5.964 Z"></path>
                <path d="M10.529,7.448 C10.48,7.945 10.447,8.384 10.44,8.764 L9.664,8.688 L9.692,7.897 L9.671,7.895 C9.404,8.26 8.847,8.718 7.992,8.634 C7.235,8.56 6.371,8.053 6.537,6.363 L6.813,3.548 L7.689,3.634 L7.426,6.3 C7.336,7.215 7.554,7.859 8.349,7.937 C8.937,7.995 9.384,7.627 9.582,7.255 C9.644,7.13 9.688,6.974 9.705,6.815 L9.995,3.861 L10.87,3.947 L10.529,7.448 L10.529,7.448 Z"></path>
                <path d="M11.824,7.997 C12.066,8.191 12.507,8.415 12.944,8.458 C13.58,8.52 13.911,8.231 13.95,7.834 C13.991,7.416 13.764,7.163 13.14,6.861 C12.305,6.467 11.945,5.95 12,5.373 C12.076,4.597 12.766,4.022 13.801,4.124 C14.288,4.172 14.701,4.353 14.954,4.538 L14.673,5.153 C14.496,5.015 14.164,4.822 13.716,4.778 C13.199,4.727 12.881,4.998 12.846,5.355 C12.807,5.753 13.078,5.96 13.682,6.26 C14.486,6.66 14.871,7.12 14.801,7.837 C14.718,8.683 14.003,9.215 12.861,9.103 C12.334,9.051 11.859,8.874 11.54,8.641 L11.824,7.997 L11.824,7.997 Z"></path>
                <path d="M19.247,9.449 C19.007,9.546 18.483,9.655 17.836,9.592 C16.384,9.449 15.536,8.372 15.681,6.9 C15.827,5.419 16.948,4.443 18.518,4.597 C19.037,4.648 19.482,4.823 19.706,4.965 L19.441,5.622 C19.244,5.481 18.925,5.34 18.449,5.293 C17.345,5.185 16.669,5.942 16.57,6.947 C16.461,8.061 17.109,8.817 18.064,8.911 C18.56,8.96 18.902,8.863 19.161,8.778 L19.247,9.449 L19.247,9.449 Z"></path>
                <path d="M22.921,9.991 L22.911,9.377 L22.882,9.374 C22.575,9.726 22.027,10.014 21.339,9.946 C20.364,9.85 19.934,9.115 20.002,8.419 C20.116,7.255 21.214,6.72 23.072,6.913 L23.082,6.813 C23.121,6.415 23.083,5.688 22.098,5.591 C21.652,5.547 21.169,5.641 20.81,5.826 L20.667,5.229 C21.091,5.009 21.684,4.897 22.291,4.957 C23.763,5.102 24.021,6.142 23.928,7.106 L23.751,8.907 C23.71,9.324 23.689,9.734 23.717,10.068 L22.921,9.991 L22.921,9.991 Z M23.033,7.521 C22.08,7.407 20.978,7.47 20.887,8.405 C20.831,8.972 21.183,9.278 21.63,9.322 C22.257,9.384 22.693,9.024 22.873,8.631 C22.911,8.544 22.941,8.446 22.95,8.358 L23.033,7.521 L23.033,7.521 Z"></path>
                <path d="M29.904,3.547 L29.332,9.365 C29.29,9.794 29.252,10.282 29.25,10.613 L28.464,10.536 L28.507,9.696 L28.486,9.694 C28.166,10.205 27.538,10.555 26.752,10.478 C25.589,10.364 24.791,9.29 24.935,7.829 C25.082,6.226 26.173,5.34 27.347,5.455 C28.082,5.527 28.546,5.924 28.727,6.334 L28.748,6.336 L29.031,3.461 L29.904,3.547 L29.904,3.547 Z M28.615,7.668 C28.626,7.559 28.631,7.409 28.612,7.297 C28.536,6.727 28.103,6.223 27.448,6.158 C26.543,6.069 25.927,6.812 25.823,7.876 C25.726,8.852 26.126,9.704 27.07,9.797 C27.657,9.855 28.233,9.52 28.457,8.878 C28.498,8.762 28.519,8.643 28.533,8.504 L28.615,7.668 L28.615,7.668 Z"></path>
                <path d="M35.263,8.733 C35.088,10.513 33.78,11.169 32.615,11.053 C31.313,10.925 30.402,9.871 30.552,8.35 C30.71,6.739 31.859,5.897 33.191,6.028 C34.57,6.165 35.407,7.262 35.263,8.733 L35.263,8.733 Z M31.438,8.408 C31.334,9.462 31.864,10.317 32.718,10.401 C33.554,10.483 34.258,9.759 34.364,8.675 C34.444,7.86 34.136,6.784 33.102,6.683 C32.068,6.582 31.527,7.493 31.438,8.408 L31.438,8.408 Z"></path>
                <path d="M36.454,7.978 C36.51,7.411 36.548,6.922 36.56,6.471 L37.328,6.546 L37.265,7.494 L37.305,7.498 C37.587,6.873 38.156,6.517 38.743,6.574 C38.843,6.584 38.911,6.6 38.988,6.629 L38.907,7.454 C38.82,7.426 38.731,7.407 38.612,7.395 C37.996,7.334 37.51,7.759 37.328,8.404 C37.297,8.521 37.264,8.659 37.249,8.807 L36.997,11.373 L36.131,11.288 L36.454,7.978 L36.454,7.978 Z"></path>
                <path d="M39.992,9.399 C39.894,10.585 40.602,11.146 41.478,11.232 C42.105,11.294 42.494,11.221 42.834,11.114 L42.922,11.756 C42.6,11.864 42.058,11.973 41.292,11.898 C39.81,11.752 39.021,10.69 39.162,9.238 C39.304,7.786 40.272,6.726 41.675,6.864 C43.246,7.018 43.529,8.442 43.443,9.328 C43.424,9.506 43.391,9.644 43.374,9.732 L39.992,9.399 L39.992,9.399 Z M42.62,9.024 C42.682,8.468 42.531,7.58 41.546,7.483 C40.661,7.396 40.192,8.173 40.065,8.773 L42.62,9.024 L42.62,9.024 Z"></path>
                <path d="M44.238,11.183 C44.478,11.377 44.92,11.601 45.357,11.644 C45.994,11.706 46.324,11.417 46.363,11.02 C46.404,10.602 46.177,10.349 45.553,10.046 C44.718,9.652 44.358,9.136 44.413,8.559 C44.489,7.783 45.179,7.207 46.214,7.31 C46.7,7.357 47.114,7.539 47.367,7.724 L47.086,8.339 C46.909,8.201 46.577,8.008 46.129,7.964 C45.611,7.913 45.294,8.183 45.259,8.541 C45.22,8.939 45.49,9.146 46.094,9.446 C46.899,9.846 47.284,10.306 47.214,11.023 C47.131,11.869 46.416,12.401 45.274,12.288 C44.748,12.236 44.271,12.059 43.954,11.827 L44.238,11.183 L44.238,11.183 Z"></path>
                <path d="M52.898,5.968 C52.076,6.871 51.42,8.113 51.245,9.912 C51.071,11.683 51.493,13.01 52.101,14.074 L51.414,14.007 C50.868,13.119 50.317,11.78 50.508,9.84 C50.71,7.882 51.501,6.674 52.21,5.901 L52.898,5.968 L52.898,5.968 Z"></path>
                <path d="M53.161,11.898 C53.525,12.175 54.073,12.429 54.67,12.488 C55.555,12.575 56.118,12.159 56.185,11.482 C56.247,10.855 55.923,10.462 55.052,10.025 C53.996,9.53 53.375,8.896 53.468,7.952 C53.572,6.907 54.513,6.217 55.816,6.345 C56.503,6.412 56.985,6.619 57.265,6.819 L56.957,7.502 C56.749,7.361 56.321,7.118 55.715,7.059 C54.8,6.969 54.4,7.482 54.354,7.94 C54.292,8.567 54.669,8.915 55.559,9.364 C56.652,9.913 57.173,10.516 57.078,11.502 C56.975,12.536 56.122,13.356 54.541,13.201 C53.895,13.138 53.207,12.879 52.873,12.605 L53.161,11.898 L53.161,11.898 Z"></path>
                <path d="M61.863,10.645 L59.257,10.389 L59.02,12.806 L61.924,13.091 L61.853,13.818 L58.083,13.447 L58.741,6.743 L62.361,7.099 L62.29,7.825 L59.535,7.554 L59.327,9.672 L61.932,9.929 L61.863,10.645 L61.863,10.645 Z"></path>
                <path d="M69.044,11.069 C68.817,13.377 67.295,14.462 65.584,14.294 C63.814,14.12 62.705,12.625 62.904,10.597 C63.113,8.468 64.573,7.205 66.363,7.381 C68.193,7.562 69.239,9.08 69.044,11.069 L69.044,11.069 Z M63.831,10.668 C63.69,12.1 64.341,13.459 65.704,13.593 C67.076,13.728 67.975,12.54 68.125,11.019 C68.256,9.687 67.696,8.226 66.254,8.083 C64.822,7.942 63.976,9.195 63.831,10.668 L63.831,10.668 Z"></path>
                <path d="M69.092,15.744 C69.894,14.828 70.57,13.589 70.744,11.799 C70.919,10.019 70.507,8.693 69.888,7.638 L70.566,7.704 C71.122,8.582 71.663,9.92 71.469,11.88 C71.279,13.829 70.489,15.027 69.769,15.811 L69.092,15.744 L69.092,15.744 Z"></path>
            </g>
        </g>
    </g>
</svg>