<?xml version="1.0" encoding="UTF-8" standalone="no"?>
<svg width="79px" height="20px" viewBox="0 0 79 20" version="1.1" xmlns="http://www.w3.org/2000/svg" xmlns:xlink="http://www.w3.org/1999/xlink" xmlns:sketch="http://www.bohemiancoding.com/sketch/ns">
    <!-- Generator: Sketch 3.4 (15588) - http://www.bohemiancoding.com/sketch -->
    <title>Group</title>
    <desc>Created with Sketch.</desc>
    <defs></defs>
    <g id="Page-1" stroke="none" stroke-width="1" fill="none" fill-rule="evenodd" sketch:type="MSPage">
        <g id="Group" sketch:type="MSLayerGroup">
            <path d="M4.419,6.837 L77.065,0.191 L78.25,12.635 L5.604,19.281 L0.46,14.483 L4.419,6.837 Z" id="Shape" fill="#73123A" sketch:type="MSShapeGroup"></path>
            <g transform="translate(11.000000, 3.000000)" id="Shape" fill="#FFFFFF" sketch:type="MSShapeGroup">
                <path d="M0.961,6.066 C1.39,5.932 2.011,5.819 2.607,5.759 C3.532,5.666 4.145,5.775 4.601,6.11 C4.969,6.375 5.205,6.813 5.256,7.33 C5.345,8.215 4.848,8.858 4.166,9.168 L4.169,9.198 C4.704,9.324 5.061,9.77 5.29,10.45 C5.602,11.363 5.827,11.993 5.992,12.238 L5.097,12.328 C4.968,12.15 4.761,11.589 4.488,10.772 C4.196,9.867 3.803,9.556 3.014,9.605 L2.199,9.688 L2.492,12.592 L1.627,12.679 L0.961,6.066 L0.961,6.066 Z M2.134,9.031 L3.019,8.942 C3.945,8.849 4.479,8.282 4.402,7.517 C4.315,6.652 3.651,6.337 2.735,6.419 C2.317,6.461 2.023,6.531 1.887,6.585 L2.134,9.031 L2.134,9.031 Z"></path>
                <path d="M7.251,9.841 C7.391,11.023 8.195,11.434 9.07,11.345 C9.697,11.282 10.063,11.134 10.378,10.961 L10.591,11.573 C10.296,11.743 9.785,11.956 9.02,12.033 C7.539,12.182 6.555,11.297 6.409,9.845 C6.263,8.393 7.002,7.164 8.404,7.022 C9.975,6.863 10.532,8.204 10.622,9.088 C10.64,9.267 10.634,9.408 10.633,9.499 L7.251,9.841 L7.251,9.841 Z M9.754,8.956 C9.708,8.397 9.381,7.556 8.397,7.655 C7.512,7.744 7.208,8.599 7.199,9.214 L9.754,8.956 L9.754,8.956 Z"></path>
                <path d="M15.42,4.154 L16.007,9.971 C16.05,10.399 16.109,10.885 16.172,11.21 L15.386,11.29 L15.262,10.459 L15.242,10.461 C15.028,11.024 14.482,11.492 13.696,11.571 C12.533,11.688 11.539,10.794 11.391,9.332 C11.219,7.732 12.115,6.647 13.288,6.529 C14.022,6.455 14.556,6.753 14.813,7.119 L14.834,7.117 L14.544,4.243 L15.42,4.154 L15.42,4.154 Z M14.969,8.449 C14.958,8.34 14.933,8.191 14.892,8.085 C14.706,7.541 14.183,7.132 13.527,7.198 C12.623,7.29 12.166,8.139 12.273,9.204 C12.372,10.178 12.929,10.935 13.875,10.84 C14.461,10.781 14.96,10.339 15.053,9.667 C15.071,9.544 15.069,9.423 15.054,9.285 L14.969,8.449 L14.969,8.449 Z"></path>
                <path d="M17.847,8.771 C17.987,9.953 18.791,10.364 19.666,10.275 C20.293,10.212 20.66,10.065 20.974,9.892 L21.187,10.504 C20.892,10.674 20.381,10.886 19.616,10.964 C18.135,11.113 17.151,10.228 17.005,8.776 C16.859,7.324 17.599,6.094 19.001,5.953 C20.571,5.795 21.129,7.135 21.218,8.019 C21.237,8.198 21.231,8.339 21.23,8.43 L17.847,8.771 L17.847,8.771 Z M20.35,7.887 C20.304,7.329 19.978,6.487 18.994,6.587 C18.108,6.676 17.804,7.531 17.795,8.145 L20.35,7.887 L20.35,7.887 Z"></path>
                <path d="M22.362,9.683 C22.637,9.826 23.112,9.959 23.55,9.914 C24.186,9.85 24.452,9.501 24.412,9.103 C24.369,8.686 24.098,8.482 23.428,8.309 C22.532,8.088 22.075,7.652 22.018,7.075 C21.94,6.299 22.501,5.599 23.536,5.495 C24.023,5.446 24.465,5.542 24.75,5.674 L24.596,6.332 C24.395,6.232 24.031,6.108 23.583,6.153 C23.065,6.205 22.808,6.532 22.844,6.89 C22.884,7.288 23.191,7.438 23.84,7.613 C24.708,7.847 25.178,8.221 25.25,8.938 C25.335,9.783 24.739,10.446 23.596,10.562 C23.069,10.615 22.569,10.535 22.21,10.37 L22.362,9.683 L22.362,9.683 Z"></path>
                <path d="M28.411,9.072 C28.686,9.215 29.162,9.348 29.599,9.304 C30.236,9.24 30.501,8.891 30.461,8.493 C30.419,8.076 30.148,7.872 29.477,7.699 C28.581,7.478 28.125,7.042 28.067,6.465 C27.989,5.689 28.55,4.989 29.586,4.885 C30.072,4.836 30.515,4.932 30.799,5.064 L30.645,5.722 C30.444,5.622 30.08,5.498 29.632,5.543 C29.115,5.595 28.857,5.922 28.893,6.28 C28.933,6.678 29.24,6.828 29.89,7.003 C30.758,7.237 31.227,7.611 31.299,8.328 C31.385,9.173 30.788,9.836 29.645,9.952 C29.119,10.005 28.618,9.925 28.259,9.76 L28.411,9.072 L28.411,9.072 Z"></path>
                <path d="M36.669,6.672 C36.849,8.452 35.693,9.352 34.53,9.469 C33.227,9.6 32.127,8.747 31.973,7.225 C31.811,5.615 32.769,4.563 34.101,4.429 C35.484,4.29 36.521,5.2 36.669,6.672 L36.669,6.672 Z M32.855,7.107 C32.961,8.161 33.649,8.895 34.503,8.809 C35.339,8.725 35.886,7.876 35.776,6.792 C35.694,5.977 35.181,4.983 34.147,5.088 C33.114,5.192 32.764,6.192 32.855,7.107 L32.855,7.107 Z"></path>
                <path d="M41.436,8.481 C41.219,8.623 40.728,8.834 40.082,8.899 C38.63,9.045 37.586,8.156 37.437,6.684 C37.288,5.203 38.194,4.026 39.765,3.868 C40.282,3.816 40.752,3.899 41.003,3.994 L40.872,4.69 C40.651,4.592 40.311,4.516 39.835,4.564 C38.731,4.675 38.217,5.551 38.317,6.555 C38.43,7.669 39.214,8.283 40.17,8.186 C40.667,8.136 40.982,7.973 41.22,7.839 L41.436,8.481 L41.436,8.481 Z"></path>
                <path d="M42.832,2.293 C42.872,2.59 42.678,2.851 42.33,2.886 C42.021,2.917 41.778,2.7 41.749,2.403 C41.718,2.094 41.922,1.833 42.24,1.801 C42.568,1.768 42.801,1.984 42.832,2.293 L42.832,2.293 Z M42.479,8.557 L41.994,3.744 L42.869,3.656 L43.354,8.468 L42.479,8.557 L42.479,8.557 Z"></path>
                <path d="M47.474,8.053 L47.342,7.453 L47.313,7.456 C47.083,7.861 46.599,8.251 45.914,8.321 C44.939,8.419 44.372,7.783 44.303,7.087 C44.185,5.923 45.156,5.183 47.016,5.005 L47.006,4.905 C46.966,4.507 46.784,3.802 45.799,3.901 C45.352,3.946 44.899,4.133 44.583,4.386 L44.326,3.829 C44.697,3.53 45.257,3.303 45.863,3.242 C47.335,3.094 47.795,4.062 47.891,5.027 L48.073,6.827 C48.116,7.244 48.177,7.65 48.269,7.973 L47.474,8.053 L47.474,8.053 Z M47.096,5.609 C46.14,5.686 45.073,5.964 45.167,6.899 C45.224,7.466 45.629,7.696 46.077,7.651 C46.703,7.588 47.06,7.15 47.158,6.728 C47.179,6.636 47.189,6.534 47.18,6.445 L47.096,5.609 L47.096,5.609 Z"></path>
                <path d="M48.892,0.777 L49.767,0.689 L50.479,7.75 L49.604,7.838 L48.892,0.777 L48.892,0.777 Z"></path>
                <path d="M52.212,5.304 C52.352,6.486 53.156,6.896 54.031,6.808 C54.658,6.745 55.024,6.597 55.339,6.424 L55.552,7.036 C55.257,7.205 54.746,7.418 53.981,7.496 C52.5,7.645 51.516,6.76 51.37,5.308 C51.224,3.857 51.964,2.627 53.365,2.485 C54.936,2.326 55.493,3.667 55.583,4.551 C55.601,4.73 55.596,4.871 55.595,4.962 L52.212,5.304 L52.212,5.304 Z M54.715,4.419 C54.669,3.861 54.343,3.019 53.359,3.118 C52.473,3.207 52.169,4.062 52.16,4.677 L54.715,4.419 L54.715,4.419 Z"></path>
                <path d="M56.727,6.215 C57.003,6.358 57.478,6.491 57.915,6.447 C58.552,6.383 58.818,6.034 58.778,5.636 C58.735,5.219 58.464,5.015 57.794,4.842 C56.898,4.62 56.441,4.185 56.383,3.608 C56.305,2.832 56.867,2.132 57.902,2.028 C58.389,1.979 58.831,2.075 59.116,2.207 L58.962,2.865 C58.761,2.765 58.396,2.641 57.948,2.686 C57.431,2.738 57.173,3.065 57.209,3.423 C57.249,3.821 57.556,3.97 58.206,4.146 C59.074,4.38 59.544,4.754 59.616,5.471 C59.701,6.316 59.105,6.979 57.962,7.095 C57.435,7.148 56.935,7.068 56.576,6.903 L56.727,6.215 L56.727,6.215 Z"></path>
            </g>
        </g>
    </g>
</svg>