<?xml version="1.0" encoding="UTF-8" standalone="no"?>
<svg width="45px" height="17px" viewBox="0 0 45 17" version="1.1" xmlns="http://www.w3.org/2000/svg" xmlns:xlink="http://www.w3.org/1999/xlink" xmlns:sketch="http://www.bohemiancoding.com/sketch/ns">
    <!-- Generator: Sketch 3.4 (15588) - http://www.bohemiancoding.com/sketch -->
    <title>Group</title>
    <desc>Created with Sketch.</desc>
    <defs></defs>
    <g id="Page-1" stroke="none" stroke-width="1" fill="none" fill-rule="evenodd" sketch:type="MSPage">
        <g id="Group" sketch:type="MSLayerGroup">
            <path d="M39.489,17.018 L0.652,12.938 L1.875,0.498 L40.712,4.578 L44.841,10.272 L39.489,17.018 Z" id="Shape" fill="#73123A" sketch:type="MSShapeGroup"></path>
            <g transform="translate(11.000000, 3.000000)" id="Shape" fill="#FFFFFF" sketch:type="MSShapeGroup">
                <path d="M0.548,7.733 C0.601,7.407 0.668,6.921 0.71,6.493 L1.282,0.675 L2.146,0.76 L1.849,3.784 L1.87,3.786 C2.229,3.278 2.822,2.985 3.599,3.061 C4.792,3.178 5.54,4.256 5.386,5.717 C5.216,7.438 4.049,8.187 2.975,8.081 C2.279,8.013 1.748,7.688 1.454,7.018 L1.424,7.015 L1.306,7.807 L0.548,7.733 L0.548,7.733 Z M1.644,5.892 C1.633,6.001 1.642,6.113 1.652,6.214 C1.76,6.837 2.227,7.305 2.864,7.367 C3.779,7.457 4.399,6.764 4.509,5.661 C4.604,4.696 4.187,3.822 3.252,3.73 C2.655,3.67 2.059,4.024 1.814,4.672 C1.784,4.77 1.743,4.887 1.729,5.026 L1.644,5.892 L1.644,5.892 Z"></path>
                <path d="M6.944,1.231 L7.819,1.317 L7.125,8.379 L6.25,8.293 L6.944,1.231 L6.944,1.231 Z"></path>
                <path d="M13.196,6.505 C13.021,8.285 11.712,8.94 10.547,8.825 C9.245,8.697 8.334,7.643 8.485,6.122 C8.642,4.511 9.791,3.669 11.124,3.8 C12.505,3.936 13.341,5.033 13.196,6.505 L13.196,6.505 Z M9.372,6.18 C9.268,7.234 9.796,8.089 10.651,8.173 C11.487,8.255 12.191,7.53 12.297,6.446 C12.377,5.631 12.07,4.556 11.036,4.455 C10.002,4.354 9.462,5.265 9.372,6.18 L9.372,6.18 Z"></path>
                <path d="M18.684,4.654 C18.629,5.001 18.573,5.386 18.514,5.973 L18.241,8.768 C18.133,9.872 17.846,10.527 17.34,10.899 C16.829,11.291 16.139,11.364 15.531,11.304 C14.955,11.247 14.332,11.045 13.969,10.748 L14.253,10.103 C14.551,10.332 15.031,10.561 15.628,10.62 C16.523,10.708 17.226,10.306 17.345,9.092 L17.399,8.555 L17.378,8.553 C17.066,8.974 16.514,9.282 15.768,9.208 C14.576,9.09 13.82,7.991 13.951,6.658 C14.111,5.027 15.265,4.207 16.371,4.315 C17.207,4.397 17.62,4.88 17.79,5.298 L17.811,5.3 L17.922,4.577 L18.684,4.654 L18.684,4.654 Z M17.592,6.465 C17.608,6.316 17.61,6.186 17.581,6.063 C17.473,5.54 17.086,5.08 16.449,5.017 C15.613,4.935 14.947,5.582 14.838,6.697 C14.745,7.641 15.146,8.474 16.09,8.568 C16.627,8.621 17.148,8.33 17.392,7.791 C17.456,7.647 17.494,7.48 17.507,7.331 L17.592,6.465 L17.592,6.465 Z"></path>
                <path d="M19.595,8.701 C19.836,8.895 20.278,9.119 20.714,9.162 C21.351,9.224 21.681,8.935 21.72,8.538 C21.761,8.12 21.534,7.867 20.911,7.565 C20.076,7.171 19.715,6.654 19.771,6.077 C19.846,5.302 20.537,4.726 21.572,4.828 C22.057,4.876 22.471,5.057 22.724,5.242 L22.444,5.857 C22.266,5.719 21.934,5.526 21.487,5.482 C20.968,5.431 20.652,5.702 20.617,6.059 C20.578,6.457 20.847,6.664 21.452,6.964 C22.256,7.364 22.641,7.824 22.572,8.541 C22.489,9.387 21.774,9.919 20.631,9.807 C20.106,9.755 19.629,9.578 19.311,9.345 L19.595,8.701 L19.595,8.701 Z"></path>
            </g>
        </g>
    </g>
</svg>