<?xml version="1.0" encoding="UTF-8" standalone="no"?>
<svg width="48px" height="16px" viewBox="0 0 48 16" version="1.1" xmlns="http://www.w3.org/2000/svg" xmlns:xlink="http://www.w3.org/1999/xlink" xmlns:sketch="http://www.bohemiancoding.com/sketch/ns">
    <!-- Generator: Sketch 3.4 (15588) - http://www.bohemiancoding.com/sketch -->
    <title>Group</title>
    <desc>Created with Sketch.</desc>
    <defs></defs>
    <g id="Page-1" stroke="none" stroke-width="1" fill="none" fill-rule="evenodd" sketch:type="MSPage">
        <g id="Group" sketch:type="MSLayerGroup">
            <path d="M42.774,15.271 L0.841,13.013 L1.547,0.533 L43.479,2.79 L47.842,8.31 L42.774,15.271 Z" id="Shape" fill="#73123A" sketch:type="MSShapeGroup"></path>
            <g transform="translate(9.000000, 3.000000)" id="Shape" fill="#FFFFFF" sketch:type="MSShapeGroup">
                <path d="M2.638,0.818 L2.559,2.205 L3.816,2.275 L3.778,2.943 L2.521,2.874 L2.374,5.478 C2.34,6.078 2.491,6.426 2.979,6.455 C3.209,6.468 3.38,6.448 3.491,6.424 L3.494,7.085 C3.32,7.145 3.049,7.18 2.709,7.161 C2.3,7.138 1.979,6.989 1.782,6.737 C1.547,6.464 1.482,6.03 1.514,5.461 L1.663,2.827 L0.914,2.785 L0.952,2.116 L1.701,2.158 L1.766,1.001 L2.638,0.818 L2.638,0.818 Z"></path>
                <path d="M8.649,6.073 C8.621,6.572 8.606,7.011 8.614,7.39 L7.836,7.346 L7.831,6.556 L7.81,6.554 C7.56,6.931 7.021,7.41 6.164,7.364 C5.405,7.321 4.52,6.849 4.617,5.154 L4.776,2.33 L5.654,2.38 L5.503,5.054 C5.451,5.972 5.696,6.608 6.493,6.653 C7.082,6.685 7.515,6.3 7.696,5.921 C7.753,5.794 7.792,5.636 7.8,5.476 L7.967,2.513 L8.846,2.564 L8.649,6.073 L8.649,6.073 Z"></path>
                <path d="M12.772,2.782 L13.272,5.272 C13.381,5.819 13.484,6.326 13.544,6.83 L13.573,6.832 C13.711,6.35 13.9,5.839 14.09,5.329 L15.017,2.909 L15.755,2.951 L16.367,5.408 C16.513,5.997 16.625,6.512 16.707,7.009 L16.737,7.011 C16.843,6.528 17.003,6.026 17.194,5.465 L18.02,3.079 L18.886,3.128 L17.057,7.869 L16.259,7.824 L15.652,5.477 C15.512,4.928 15.4,4.442 15.311,3.866 L15.291,3.865 C15.139,4.437 14.961,4.927 14.762,5.437 L13.854,7.688 L13.055,7.642 L11.871,2.73 L12.772,2.782 L12.772,2.782 Z"></path>
                <path d="M20.017,5.774 C19.97,6.962 20.702,7.495 21.579,7.544 C22.208,7.58 22.594,7.492 22.931,7.37 L23.044,8.008 C22.728,8.13 22.19,8.26 21.422,8.216 C19.935,8.132 19.103,7.106 19.185,5.649 C19.267,4.192 20.191,3.091 21.597,3.171 C23.173,3.26 23.515,4.671 23.464,5.559 C23.454,5.74 23.427,5.877 23.41,5.966 L20.017,5.774 L20.017,5.774 Z M22.627,5.292 C22.668,4.733 22.479,3.852 21.489,3.796 C20.601,3.745 20.166,4.542 20.062,5.148 L22.627,5.292 L22.627,5.292 Z"></path>
                <path d="M24.362,8.282 C24.401,7.954 24.448,7.467 24.471,7.037 L24.801,1.199 L25.669,1.248 L25.497,4.282 L25.518,4.284 C25.859,3.762 26.436,3.444 27.215,3.488 C28.412,3.554 29.204,4.6 29.111,6.068 C29.012,7.795 27.878,8.589 26.799,8.53 C26.1,8.49 25.556,8.189 25.235,7.53 L25.205,7.529 L25.12,8.325 L24.362,8.282 L24.362,8.282 Z M25.38,6.397 C25.374,6.505 25.388,6.618 25.401,6.718 C25.536,7.336 26.021,7.783 26.66,7.821 C27.579,7.873 28.17,7.156 28.232,6.048 C28.287,5.08 27.835,4.224 26.896,4.171 C26.296,4.138 25.715,4.515 25.499,5.173 C25.474,5.272 25.437,5.39 25.429,5.529 L25.38,6.397 L25.38,6.397 Z"></path>
            </g>
        </g>
    </g>
</svg>