<?xml version="1.0" encoding="UTF-8" standalone="no"?>
<svg width="40px" height="17px" viewBox="0 0 40 17" version="1.1" xmlns="http://www.w3.org/2000/svg" xmlns:xlink="http://www.w3.org/1999/xlink" xmlns:sketch="http://www.bohemiancoding.com/sketch/ns">
    <!-- Generator: Sketch 3.4 (15588) - http://www.bohemiancoding.com/sketch -->
    <title>Group</title>
    <desc>Created with Sketch.</desc>
    <defs></defs>
    <g id="Page-1" stroke="none" stroke-width="1" fill="none" fill-rule="evenodd" sketch:type="MSPage">
        <g id="Group" sketch:type="MSLayerGroup">
            <path d="M4.898,4.182 L38.648,0.858 L39.833,13.303 L6.083,16.625 L0.938,11.828 L4.898,4.182 Z" id="Shape" fill="#73123A" sketch:type="MSShapeGroup"></path>
            <g transform="translate(10.000000, 4.000000)" id="Shape" fill="#FFFFFF" sketch:type="MSShapeGroup">
                <path d="M1.476,8.686 C1.462,8.357 1.433,7.868 1.39,7.44 L0.803,1.623 L1.668,1.535 L1.973,4.557 L1.993,4.555 C2.247,3.988 2.769,3.582 3.545,3.504 C4.738,3.384 5.684,4.293 5.821,5.756 C5.995,7.477 4.998,8.443 3.924,8.549 C3.228,8.619 2.644,8.407 2.222,7.807 L2.192,7.811 L2.233,8.611 L1.476,8.686 L1.476,8.686 Z M2.186,6.665 C2.198,6.774 2.228,6.882 2.258,6.978 C2.488,7.568 3.037,7.934 3.674,7.871 C4.588,7.778 5.06,6.976 4.948,5.874 C4.851,4.909 4.27,4.135 3.336,4.228 C2.739,4.29 2.224,4.752 2.111,5.438 C2.101,5.54 2.085,5.661 2.098,5.799 L2.186,6.665 L2.186,6.665 Z"></path>
                <path d="M6.464,1.05 L7.339,0.961 L8.052,8.023 L7.177,8.112 L6.464,1.05 L6.464,1.05 Z"></path>
                <path d="M13.633,4.988 C13.813,6.766 12.657,7.668 11.494,7.785 C10.191,7.916 9.091,7.063 8.937,5.541 C8.775,3.932 9.733,2.88 11.065,2.745 C12.448,2.605 13.484,3.516 13.633,4.988 L13.633,4.988 Z M9.819,5.423 C9.925,6.477 10.613,7.211 11.467,7.125 C12.303,7.041 12.849,6.191 12.739,5.107 C12.657,4.293 12.145,3.297 11.111,3.404 C10.078,3.508 9.728,4.508 9.819,5.423 L9.819,5.423 Z"></path>
                <path d="M18.647,2.091 C18.663,2.443 18.681,2.83 18.741,3.417 L19.023,6.211 C19.134,7.315 18.983,8.014 18.558,8.479 C18.134,8.963 17.473,9.171 16.866,9.234 C16.29,9.292 15.639,9.215 15.225,8.998 L15.376,8.31 C15.714,8.477 16.23,8.607 16.826,8.545 C17.722,8.455 18.33,7.921 18.208,6.707 L18.153,6.17 L18.133,6.172 C17.909,6.649 17.429,7.058 16.683,7.133 C15.49,7.253 14.533,6.325 14.398,4.992 C14.234,3.361 15.205,2.33 16.308,2.219 C17.143,2.134 17.645,2.527 17.894,2.904 L17.914,2.902 L17.881,2.172 L18.647,2.091 L18.647,2.091 Z M17.935,4.082 C17.919,3.933 17.897,3.805 17.844,3.687 C17.634,3.197 17.164,2.823 16.528,2.885 C15.693,2.97 15.168,3.738 15.28,4.85 C15.376,5.795 15.932,6.534 16.877,6.437 C17.414,6.383 17.867,5.998 18,5.419 C18.034,5.265 18.037,5.094 18.022,4.944 L17.935,4.082 L17.935,4.082 Z"></path>
            </g>
        </g>
    </g>
</svg>