<?xml version="1.0" encoding="UTF-8" standalone="no"?>
<svg width="67px" height="19px" viewBox="0 0 67 19" version="1.1" xmlns="http://www.w3.org/2000/svg" xmlns:xlink="http://www.w3.org/1999/xlink" xmlns:sketch="http://www.bohemiancoding.com/sketch/ns">
    <!-- Generator: Sketch 3.4 (15588) - http://www.bohemiancoding.com/sketch -->
    <title>Group</title>
    <desc>Created with Sketch.</desc>
    <defs></defs>
    <g id="Page-1" stroke="none" stroke-width="1" fill="none" fill-rule="evenodd" sketch:type="MSPage">
        <g id="Group" sketch:type="MSLayerGroup">
            <path d="M61.619,18.975 L0.711,13.299 L1.934,0.858 L62.842,6.535 L66.971,12.23 L61.619,18.975 Z" id="Shape" fill="#73123A" sketch:type="MSShapeGroup"></path>
            <g transform="translate(9.000000, 6.000000)" id="Shape" fill="#FFFFFF" sketch:type="MSShapeGroup">
                <path d="M4.133,4.971 C3.893,5.069 3.37,5.177 2.723,5.115 C1.271,4.971 0.423,3.893 0.568,2.423 C0.714,0.942 1.834,-0.034 3.405,0.12 C3.922,0.171 4.367,0.346 4.593,0.488 L4.328,1.145 C4.131,1.003 3.813,0.863 3.336,0.816 C2.232,0.708 1.555,1.463 1.457,2.468 C1.347,3.582 1.996,4.339 2.95,4.433 C3.448,4.483 3.789,4.385 4.047,4.3 L4.133,4.971 L4.133,4.971 Z"></path>
                <path d="M9.68,3.226 C9.505,5.006 8.196,5.663 7.031,5.547 C5.729,5.419 4.818,4.364 4.968,2.843 C5.126,1.233 6.273,0.391 7.606,0.523 C8.988,0.657 9.824,1.754 9.68,3.226 L9.68,3.226 Z M5.855,2.9 C5.751,3.955 6.279,4.808 7.135,4.892 C7.97,4.974 8.675,4.25 8.781,3.166 C8.862,2.351 8.555,1.275 7.521,1.174 C6.486,1.074 5.945,1.985 5.855,2.9 L5.855,2.9 Z"></path>
                <path d="M10.891,2.271 C10.94,1.773 10.971,1.365 10.979,0.962 L11.745,1.037 L11.709,1.817 L11.739,1.82 C12.052,1.387 12.542,1.006 13.337,1.084 C13.994,1.148 14.452,1.595 14.607,2.183 L14.627,2.185 C14.803,1.931 15.012,1.742 15.226,1.612 C15.537,1.422 15.867,1.334 16.324,1.379 C16.961,1.441 17.864,1.952 17.7,3.623 L17.422,6.458 L16.567,6.374 L16.837,3.648 C16.928,2.722 16.644,2.131 15.938,2.062 C15.441,2.013 15.017,2.343 14.827,2.756 C14.774,2.871 14.728,3.027 14.714,3.187 L14.422,6.163 L13.567,6.079 L13.851,3.194 C13.926,2.427 13.643,1.838 12.976,1.771 C12.43,1.717 11.988,2.117 11.806,2.541 C11.744,2.665 11.709,2.812 11.694,2.962 L11.408,5.866 L10.553,5.782 L10.891,2.271 L10.891,2.271 Z"></path>
                <path d="M23.003,5.68 C22.954,6.178 22.921,6.618 22.914,6.997 L22.139,6.921 L22.166,6.13 L22.145,6.128 C21.879,6.493 21.323,6.951 20.466,6.867 C19.71,6.793 18.845,6.286 19.011,4.595 L19.287,1.782 L20.163,1.868 L19.901,4.534 C19.811,5.449 20.03,6.093 20.825,6.171 C21.412,6.229 21.86,5.861 22.056,5.488 C22.118,5.364 22.163,5.208 22.179,5.049 L22.469,2.095 L23.344,2.181 L23.003,5.68 L23.003,5.68 Z"></path>
                <path d="M24.674,3.625 C24.723,3.127 24.753,2.719 24.762,2.317 L25.538,2.392 L25.51,3.194 L25.531,3.196 C25.815,2.761 26.416,2.37 27.212,2.448 C27.878,2.512 28.874,3.011 28.712,4.664 L28.43,7.539 L27.554,7.453 L27.826,4.678 C27.902,3.904 27.678,3.227 26.851,3.147 C26.275,3.089 25.788,3.454 25.589,3.925 C25.538,4.031 25.504,4.179 25.489,4.327 L25.205,7.222 L24.329,7.136 L24.674,3.625 L24.674,3.625 Z"></path>
                <path d="M29.853,7.679 L30.327,2.866 L31.203,2.952 L30.729,7.765 L29.853,7.679 L29.853,7.679 Z M31.433,1.607 C31.413,1.907 31.171,2.124 30.825,2.088 C30.515,2.058 30.322,1.798 30.35,1.499 C30.38,1.191 30.631,0.975 30.951,1.006 C31.277,1.04 31.463,1.3 31.433,1.607 L31.433,1.607 Z"></path>
                <path d="M37.033,1.254 L36.461,7.072 C36.419,7.501 36.381,7.989 36.379,8.32 L35.593,8.243 L35.636,7.403 L35.615,7.401 C35.294,7.912 34.667,8.261 33.881,8.184 C32.718,8.071 31.919,6.996 32.063,5.536 C32.21,3.932 33.301,3.047 34.476,3.162 C35.211,3.234 35.674,3.631 35.856,4.041 L35.876,4.043 L36.159,1.168 L37.033,1.254 L37.033,1.254 Z M35.743,5.375 C35.754,5.266 35.759,5.116 35.741,5.004 C35.665,4.434 35.233,3.93 34.577,3.865 C33.671,3.776 33.056,4.518 32.952,5.583 C32.856,6.559 33.255,7.411 34.199,7.504 C34.786,7.562 35.361,7.227 35.586,6.585 C35.626,6.469 35.648,6.35 35.661,6.211 L35.743,5.375 L35.743,5.375 Z"></path>
                <path d="M40.461,8.722 L40.45,8.109 L40.421,8.106 C40.114,8.458 39.566,8.746 38.878,8.677 C37.903,8.58 37.474,7.846 37.542,7.15 C37.656,5.987 38.754,5.452 40.611,5.644 L40.621,5.544 C40.66,5.146 40.622,4.419 39.638,4.322 C39.191,4.278 38.708,4.371 38.349,4.555 L38.206,3.958 C38.63,3.739 39.223,3.626 39.83,3.687 C41.302,3.833 41.56,4.873 41.467,5.836 L41.29,7.636 C41.249,8.054 41.228,8.464 41.257,8.798 L40.461,8.722 L40.461,8.722 Z M40.572,6.252 C39.619,6.138 38.517,6.2 38.426,7.136 C38.37,7.702 38.722,8.009 39.169,8.052 C39.796,8.114 40.232,7.755 40.413,7.363 C40.45,7.276 40.48,7.177 40.489,7.09 L40.572,6.252 L40.572,6.252 Z"></path>
                <path d="M47.443,2.277 L46.871,8.094 C46.829,8.523 46.791,9.01 46.788,9.341 L46.003,9.264 L46.046,8.425 L46.025,8.423 C45.704,8.934 45.077,9.283 44.291,9.206 C43.127,9.092 42.329,8.018 42.473,6.558 C42.62,4.955 43.711,4.069 44.885,4.183 C45.621,4.255 46.084,4.654 46.265,5.062 L46.286,5.065 L46.569,2.191 L47.443,2.277 L47.443,2.277 Z M46.153,6.398 C46.164,6.289 46.169,6.137 46.15,6.026 C46.075,5.457 45.641,4.952 44.986,4.886 C44.081,4.797 43.465,5.54 43.361,6.606 C43.264,7.581 43.664,8.432 44.608,8.526 C45.196,8.584 45.771,8.249 45.995,7.608 C46.036,7.491 46.057,7.373 46.071,7.234 L46.153,6.398 L46.153,6.398 Z"></path>
            </g>
        </g>
    </g>
</svg>