<?xml version="1.0" encoding="UTF-8" standalone="no"?>
<svg width="88px" height="21px" viewBox="0 0 88 21" version="1.1" xmlns="http://www.w3.org/2000/svg" xmlns:xlink="http://www.w3.org/1999/xlink" xmlns:sketch="http://www.bohemiancoding.com/sketch/ns">
    <!-- Generator: Sketch 3.4 (15588) - http://www.bohemiancoding.com/sketch -->
    <title>Group</title>
    <desc>Created with Sketch.</desc>
    <defs></defs>
    <g id="Page-1" stroke="none" stroke-width="1" fill="none" fill-rule="evenodd" sketch:type="MSPage">
        <g id="Group" sketch:type="MSLayerGroup">
            <path d="M4.024,8.119 L86.065,0.509 L87.25,12.953 L5.209,20.562 L0.064,15.766 L4.024,8.119 Z" id="Shape" fill="#73123A" sketch:type="MSShapeGroup"></path>
            <g transform="translate(8.000000, 5.000000)" id="Shape" fill="#FFFFFF" sketch:type="MSShapeGroup">
                <path d="M1.18,9.798 C1.309,10.982 2.111,11.4 2.987,11.319 C3.614,11.26 3.981,11.117 4.298,10.947 L4.505,11.559 C4.209,11.727 3.696,11.935 2.93,12.005 C1.448,12.142 0.471,11.249 0.337,9.795 C0.203,8.343 0.953,7.119 2.357,6.989 C3.929,6.843 4.475,8.189 4.556,9.075 C4.573,9.254 4.567,9.394 4.565,9.485 L1.18,9.798 L1.18,9.798 Z M3.69,8.935 C3.649,8.376 3.33,7.534 2.344,7.623 C1.458,7.704 1.146,8.557 1.132,9.17 L3.69,8.935 L3.69,8.935 Z"></path>
                <path d="M7.919,8.403 L7.979,9.049 L5.521,9.277 L5.461,8.631 L7.919,8.403 L7.919,8.403 Z"></path>
                <path d="M8.9,7.812 C8.854,7.314 8.807,6.907 8.74,6.51 L9.507,6.44 L9.618,7.212 L9.648,7.209 C9.874,6.726 10.283,6.257 11.079,6.184 C11.736,6.123 12.27,6.476 12.531,7.024 L12.552,7.023 C12.676,6.74 12.846,6.513 13.031,6.345 C13.3,6.099 13.607,5.95 14.065,5.908 C14.702,5.847 15.685,6.179 15.839,7.85 L16.101,10.688 L15.246,10.765 L14.994,8.038 C14.909,7.112 14.519,6.587 13.812,6.652 C13.314,6.698 12.96,7.101 12.85,7.544 C12.822,7.667 12.806,7.828 12.821,7.988 L13.096,10.964 L12.24,11.043 L11.973,8.156 C11.903,7.389 11.513,6.864 10.846,6.926 C10.298,6.978 9.941,7.45 9.842,7.903 C9.804,8.037 9.798,8.188 9.813,8.338 L10.081,11.244 L9.225,11.323 L8.9,7.812 L8.9,7.812 Z"></path>
                <path d="M20.196,10.312 L20.071,9.709 L20.041,9.712 C19.808,10.115 19.321,10.501 18.634,10.566 C17.659,10.656 17.098,10.014 17.033,9.319 C16.926,8.154 17.902,7.423 19.764,7.259 L19.755,7.159 C19.718,6.761 19.542,6.055 18.557,6.145 C18.109,6.185 17.654,6.369 17.336,6.619 L17.084,6.059 C17.458,5.764 18.02,5.541 18.626,5.486 C20.1,5.349 20.551,6.322 20.64,7.288 L20.806,9.09 C20.844,9.508 20.903,9.914 20.993,10.236 L20.196,10.312 L20.196,10.312 Z M19.84,7.865 C18.882,7.932 17.813,8.202 17.9,9.136 C17.952,9.703 18.355,9.939 18.803,9.898 C19.43,9.838 19.791,9.405 19.893,8.984 C19.914,8.891 19.925,8.791 19.917,8.701 L19.84,7.865 L19.84,7.865 Z"></path>
                <path d="M22.734,3.854 C22.772,4.153 22.575,4.413 22.226,4.445 C21.917,4.472 21.677,4.254 21.649,3.956 C21.621,3.647 21.828,3.388 22.146,3.358 C22.474,3.326 22.706,3.546 22.734,3.854 L22.734,3.854 Z M22.329,10.114 L21.884,5.298 L22.76,5.217 L23.204,10.033 L22.329,10.114 L22.329,10.114 Z"></path>
                <path d="M24.006,2.833 L24.882,2.753 L25.534,9.818 L24.658,9.899 L24.006,2.833 L24.006,2.833 Z"></path>
                <path d="M28.795,5.975 C28.749,5.477 28.701,5.072 28.634,4.675 L29.401,4.604 L29.512,5.376 L29.542,5.373 C29.768,4.891 30.177,4.422 30.974,4.349 C31.63,4.287 32.164,4.64 32.426,5.189 L32.446,5.186 C32.57,4.905 32.741,4.677 32.925,4.51 C33.194,4.264 33.501,4.115 33.959,4.072 C34.596,4.012 35.58,4.343 35.734,6.015 L35.996,8.851 L35.14,8.93 L34.888,6.203 C34.803,5.277 34.413,4.752 33.706,4.816 C33.209,4.862 32.854,5.265 32.744,5.708 C32.716,5.832 32.701,5.993 32.716,6.152 L32.99,9.128 L32.135,9.207 L31.868,6.321 C31.797,5.553 31.407,5.029 30.74,5.091 C30.193,5.141 29.835,5.615 29.737,6.068 C29.698,6.202 29.692,6.353 29.707,6.502 L29.975,9.408 L29.12,9.487 L28.795,5.975 L28.795,5.975 Z"></path>
                <path d="M40.091,8.475 L39.966,7.874 L39.936,7.877 C39.702,8.28 39.215,8.666 38.53,8.731 C37.553,8.821 36.993,8.179 36.928,7.484 C36.821,6.319 37.797,5.587 39.659,5.424 L39.65,5.324 C39.613,4.926 39.437,4.219 38.452,4.308 C38.004,4.35 37.549,4.534 37.231,4.784 L36.978,4.224 C37.353,3.929 37.915,3.705 38.521,3.65 C39.995,3.515 40.446,4.487 40.535,5.453 L40.701,7.255 C40.74,7.673 40.798,8.079 40.887,8.401 L40.091,8.475 L40.091,8.475 Z M39.735,6.028 C38.778,6.095 37.709,6.366 37.796,7.3 C37.848,7.867 38.251,8.103 38.699,8.06 C39.325,8.002 39.687,7.568 39.789,7.148 C39.81,7.054 39.821,6.954 39.812,6.864 L39.735,6.028 L39.735,6.028 Z"></path>
                <path d="M41.917,4.964 C41.865,4.398 41.811,3.91 41.738,3.465 L42.505,3.395 L42.622,4.337 L42.662,4.333 C42.821,3.666 43.311,3.209 43.898,3.154 C43.998,3.146 44.068,3.148 44.149,3.162 L44.225,3.988 C44.134,3.976 44.044,3.974 43.924,3.986 C43.307,4.043 42.912,4.549 42.854,5.217 C42.845,5.338 42.837,5.48 42.851,5.629 L43.088,8.196 L42.223,8.276 L41.917,4.964 L41.917,4.964 Z"></path>
                <path d="M46.145,5.286 L46.165,5.285 C46.269,5.103 46.419,4.88 46.543,4.698 L47.803,2.904 L48.858,2.806 L47.18,4.958 L49.562,7.599 L48.497,7.699 L46.622,5.544 L46.22,6.083 L46.387,7.894 L45.522,7.974 L44.87,0.91 L45.735,0.83 L46.145,5.286 L46.145,5.286 Z"></path>
                <path d="M50.47,5.249 C50.599,6.431 51.401,6.849 52.277,6.769 C52.904,6.71 53.271,6.568 53.588,6.397 L53.795,7.01 C53.499,7.178 52.986,7.386 52.22,7.456 C50.738,7.593 49.761,6.699 49.627,5.246 C49.493,3.793 50.243,2.568 51.647,2.439 C53.219,2.293 53.765,3.638 53.847,4.525 C53.863,4.705 53.857,4.845 53.855,4.935 L50.47,5.249 L50.47,5.249 Z M52.98,4.385 C52.939,3.826 52.62,2.983 51.634,3.073 C50.748,3.154 50.435,4.008 50.422,4.621 L52.98,4.385 L52.98,4.385 Z"></path>
                <path d="M55.662,0.785 L55.789,2.168 L57.043,2.053 L57.105,2.721 L55.851,2.835 L56.091,5.433 C56.146,6.031 56.346,6.353 56.834,6.308 C57.063,6.287 57.23,6.243 57.336,6.203 L57.437,6.854 C57.274,6.941 57.01,7.014 56.671,7.045 C56.264,7.083 55.922,6.983 55.692,6.765 C55.42,6.53 55.291,6.11 55.238,5.541 L54.996,2.914 L54.249,2.982 L54.187,2.316 L54.934,2.247 L54.828,1.093 L55.662,0.785 L55.662,0.785 Z"></path>
                <path d="M58.88,0.518 C58.918,0.817 58.72,1.076 58.372,1.108 C58.063,1.136 57.822,0.918 57.795,0.62 C57.767,0.311 57.974,0.052 58.292,0.022 C58.621,-0.01 58.852,0.21 58.88,0.518 L58.88,0.518 Z M58.474,6.778 L58.03,1.961 L58.906,1.881 L59.35,6.697 L58.474,6.778 L58.474,6.778 Z"></path>
                <path d="M60.48,3.051 C60.434,2.553 60.387,2.147 60.32,1.75 L61.096,1.68 L61.219,2.47 L61.24,2.468 C61.436,1.989 61.953,1.489 62.749,1.415 C63.416,1.353 64.487,1.656 64.64,3.309 L64.906,6.185 L64.03,6.266 L63.774,3.489 C63.702,2.715 63.353,2.093 62.528,2.171 C61.951,2.224 61.54,2.673 61.436,3.175 C61.406,3.288 61.4,3.441 61.414,3.588 L61.682,6.484 L60.806,6.564 L60.48,3.051 L60.48,3.051 Z"></path>
                <path d="M70.037,0.854 C70.049,1.206 70.065,1.594 70.119,2.182 L70.377,4.977 C70.48,6.082 70.323,6.781 69.894,7.242 C69.466,7.721 68.803,7.925 68.196,7.979 C67.619,8.034 66.969,7.953 66.557,7.729 L66.714,7.042 C67.05,7.211 67.565,7.345 68.161,7.29 C69.057,7.207 69.671,6.679 69.558,5.464 L69.509,4.927 L69.489,4.929 C69.26,5.403 68.776,5.807 68.03,5.876 C66.836,5.986 65.886,5.05 65.763,3.717 C65.613,2.085 66.592,1.061 67.697,0.959 C68.533,0.882 69.031,1.277 69.277,1.656 L69.297,1.654 L69.27,0.924 L70.037,0.854 L70.037,0.854 Z M69.306,2.838 C69.292,2.69 69.271,2.561 69.219,2.443 C69.013,1.951 68.546,1.572 67.909,1.631 C67.073,1.708 66.542,2.47 66.644,3.584 C66.731,4.53 67.282,5.272 68.227,5.185 C68.764,5.135 69.221,4.752 69.359,4.177 C69.394,4.024 69.399,3.853 69.385,3.702 L69.306,2.838 L69.306,2.838 Z"></path>
            </g>
        </g>
    </g>
</svg>