<?xml version="1.0" encoding="UTF-8" standalone="no"?>
<svg width="84px" height="19px" viewBox="0 0 84 19" version="1.1" xmlns="http://www.w3.org/2000/svg" xmlns:xlink="http://www.w3.org/1999/xlink" xmlns:sketch="http://www.bohemiancoding.com/sketch/ns">
    <!-- Generator: Sketch 3.4 (15588) - http://www.bohemiancoding.com/sketch -->
    <title>Group</title>
    <desc>Created with Sketch.</desc>
    <defs></defs>
    <g id="Page-1" stroke="none" stroke-width="1" fill="none" fill-rule="evenodd" sketch:type="MSPage">
        <g id="Group" sketch:type="MSLayerGroup">
            <path d="M78.971,18.257 L0,12.988 L0.706,0.509 L79.676,5.776 L84.038,11.296 L78.971,18.257 Z" id="Shape" fill="#73123A" sketch:type="MSShapeGroup"></path>
            <g transform="translate(14.000000, 5.000000)" id="Shape" fill="#FFFFFF" sketch:type="MSShapeGroup">
                <path d="M1.068,2.895 C1.004,4.083 1.729,4.624 2.606,4.686 C3.234,4.729 3.621,4.646 3.96,4.53 L4.065,5.17 C3.746,5.287 3.208,5.41 2.44,5.358 C0.954,5.254 0.135,4.213 0.236,2.758 C0.337,1.302 1.274,0.215 2.68,0.315 C4.255,0.423 4.577,1.838 4.516,2.725 C4.503,2.906 4.474,3.043 4.457,3.132 L1.068,2.895 L1.068,2.895 Z M3.683,2.445 C3.732,1.886 3.554,1.004 2.565,0.934 C1.678,0.872 1.232,1.663 1.12,2.266 L3.683,2.445 L3.683,2.445 Z"></path>
                <path d="M7.944,2.603 L7.899,3.25 L5.436,3.078 L5.481,2.431 L7.944,2.603 L7.944,2.603 Z"></path>
                <path d="M12.393,5.768 C12.156,5.872 11.637,5.997 10.987,5.952 C9.532,5.85 8.653,4.798 8.756,3.322 C8.86,1.836 9.952,0.831 11.527,0.94 C12.046,0.975 12.495,1.137 12.725,1.274 L12.479,1.938 C12.277,1.803 11.956,1.67 11.478,1.636 C10.372,1.559 9.716,2.335 9.646,3.342 C9.568,4.459 10.238,5.197 11.195,5.264 C11.694,5.298 12.032,5.193 12.288,5.1 L12.393,5.768 L12.393,5.768 Z"></path>
                <path d="M17.889,3.866 C17.764,5.65 16.474,6.343 15.307,6.262 C14.001,6.17 13.061,5.143 13.167,3.617 C13.28,2.002 14.402,1.129 15.738,1.221 C17.124,1.318 17.991,2.391 17.889,3.866 L17.889,3.866 Z M14.056,3.649 C13.982,4.706 14.535,5.545 15.392,5.605 C16.23,5.664 16.913,4.918 16.989,3.834 C17.046,3.016 16.709,1.95 15.673,1.878 C14.635,1.806 14.12,2.732 14.056,3.649 L14.056,3.649 Z"></path>
                <path d="M19.071,2.877 C19.106,2.378 19.124,1.969 19.122,1.567 L19.89,1.621 L19.876,2.401 L19.906,2.404 C20.207,1.964 20.685,1.566 21.483,1.622 C22.141,1.668 22.612,2.101 22.783,2.684 L22.803,2.685 C22.972,2.426 23.175,2.231 23.386,2.094 C23.691,1.897 24.017,1.798 24.476,1.83 C25.115,1.874 26.033,2.358 25.914,4.033 L25.717,6.875 L24.861,6.815 L25.05,4.084 C25.114,3.156 24.816,2.574 24.108,2.525 C23.61,2.49 23.194,2.832 23.014,3.25 C22.966,3.367 22.924,3.524 22.913,3.685 L22.705,6.665 L21.849,6.605 L22.05,3.712 C22.104,2.944 21.803,2.362 21.135,2.316 C20.587,2.278 20.157,2.688 19.989,3.118 C19.929,3.244 19.899,3.39 19.888,3.542 L19.685,6.453 L18.829,6.393 L19.071,2.877 L19.071,2.877 Z"></path>
                <path d="M27.392,3.457 C27.426,2.958 27.446,2.549 27.445,2.147 L28.213,2.201 L28.198,2.981 L28.226,2.983 C28.529,2.543 29.007,2.146 29.804,2.202 C30.462,2.248 30.933,2.681 31.103,3.264 L31.124,3.266 C31.293,3.007 31.496,2.811 31.707,2.675 C32.011,2.476 32.338,2.378 32.797,2.41 C33.436,2.455 34.353,2.939 34.235,4.614 L34.038,7.456 L33.181,7.396 L33.371,4.665 C33.434,3.737 33.136,3.155 32.428,3.105 C31.93,3.071 31.514,3.413 31.336,3.831 C31.287,3.948 31.246,4.105 31.234,4.265 L31.027,7.246 L30.17,7.185 L30.371,4.293 C30.425,3.525 30.125,2.943 29.456,2.897 C28.909,2.859 28.477,3.27 28.309,3.699 C28.25,3.825 28.219,3.972 28.208,4.123 L28.006,7.034 L27.15,6.973 L27.392,3.457 L27.392,3.457 Z"></path>
                <path d="M36.112,5.336 C36.05,6.524 36.773,7.065 37.649,7.127 C38.278,7.17 38.665,7.088 39.003,6.971 L39.108,7.611 C38.79,7.727 38.251,7.85 37.483,7.799 C35.997,7.695 35.176,6.655 35.279,5.2 C35.381,3.744 36.318,2.658 37.722,2.756 C39.297,2.865 39.619,4.28 39.558,5.168 C39.545,5.347 39.516,5.485 39.498,5.574 L36.112,5.336 L36.112,5.336 Z M38.728,4.888 C38.778,4.329 38.599,3.447 37.612,3.377 C36.724,3.315 36.279,4.106 36.168,4.709 L38.728,4.888 L38.728,4.888 Z"></path>
                <path d="M40.695,4.584 C40.734,4.015 40.757,3.526 40.758,3.075 L41.528,3.129 L41.491,4.078 L41.531,4.081 C41.797,3.448 42.353,3.076 42.941,3.117 C43.042,3.124 43.11,3.138 43.188,3.164 L43.129,3.991 C43.041,3.965 42.952,3.949 42.832,3.941 C42.215,3.897 41.742,4.336 41.576,4.986 C41.549,5.103 41.517,5.242 41.508,5.39 L41.329,7.962 L40.462,7.901 L40.695,4.584 L40.695,4.584 Z"></path>
                <path d="M47.078,8.185 C46.842,8.289 46.322,8.414 45.673,8.369 C44.218,8.266 43.339,7.215 43.443,5.739 C43.547,4.253 44.638,3.247 46.214,3.357 C46.734,3.391 47.183,3.553 47.412,3.69 L47.166,4.355 C46.965,4.219 46.644,4.086 46.165,4.053 C45.059,3.976 44.403,4.752 44.333,5.759 C44.255,6.875 44.925,7.613 45.882,7.68 C46.381,7.715 46.72,7.61 46.975,7.516 L47.078,8.185 L47.078,8.185 Z"></path>
                <path d="M48.681,6.212 C48.619,7.4 49.342,7.941 50.219,8.002 C50.848,8.046 51.236,7.963 51.573,7.846 L51.677,8.486 C51.359,8.604 50.821,8.726 50.052,8.674 C48.567,8.57 47.745,7.531 47.847,6.076 C47.95,4.62 48.886,3.533 50.292,3.632 C51.867,3.741 52.189,5.156 52.128,6.043 C52.115,6.223 52.086,6.361 52.068,6.45 L48.681,6.212 L48.681,6.212 Z M51.297,5.763 C51.346,5.205 51.168,4.323 50.18,4.253 C49.293,4.191 48.847,4.982 48.736,5.585 L51.297,5.763 L51.297,5.763 Z"></path>
            </g>
        </g>
    </g>
</svg>