<?xml version="1.0" encoding="UTF-8" standalone="no"?>
<svg width="66px" height="19px" viewBox="0 0 66 19" version="1.1" xmlns="http://www.w3.org/2000/svg" xmlns:xlink="http://www.w3.org/1999/xlink" xmlns:sketch="http://www.bohemiancoding.com/sketch/ns">
    <!-- Generator: Sketch 3.4 (15588) - http://www.bohemiancoding.com/sketch -->
    <title>Group</title>
    <desc>Created with Sketch.</desc>
    <defs></defs>
    <g id="Page-1" stroke="none" stroke-width="1" fill="none" fill-rule="evenodd" sketch:type="MSPage">
        <g id="Group" sketch:type="MSLayerGroup">
            <path d="M4.658,5.783 L64.197,0.126 L65.382,12.57 L5.843,18.227 L0.698,13.43 L4.658,5.783 Z" id="Shape" fill="#73123A" sketch:type="MSShapeGroup"></path>
            <g transform="translate(15.000000, 5.000000)" id="Shape" fill="#FFFFFF" sketch:type="MSShapeGroup">
                <path d="M4.75,8.419 C4.532,8.559 4.039,8.765 3.393,8.825 C1.94,8.959 0.903,8.059 0.767,6.588 C0.63,5.107 1.547,3.938 3.12,3.791 C3.637,3.743 4.106,3.831 4.356,3.928 L4.219,4.623 C3.999,4.522 3.66,4.443 3.183,4.488 C2.079,4.59 1.557,5.461 1.65,6.466 C1.753,7.581 2.533,8.201 3.488,8.113 C3.986,8.067 4.301,7.908 4.541,7.775 L4.75,8.419 L4.75,8.419 Z"></path>
                <path d="M5.142,1.438 L6.018,1.357 L6.67,8.422 L5.794,8.503 L5.142,1.438 L5.142,1.438 Z"></path>
                <path d="M8.55,2.025 C8.588,2.322 8.39,2.582 8.042,2.614 C7.733,2.641 7.492,2.424 7.465,2.125 C7.437,1.817 7.644,1.558 7.962,1.528 C8.29,1.498 8.521,1.717 8.55,2.025 L8.55,2.025 Z M8.144,8.286 L7.7,3.469 L8.576,3.388 L9.02,8.205 L8.144,8.286 L8.144,8.286 Z"></path>
                <path d="M10.754,5.776 C10.883,6.959 11.685,7.377 12.561,7.296 C13.188,7.238 13.555,7.094 13.872,6.924 L14.079,7.537 C13.783,7.705 13.27,7.913 12.504,7.983 C11.022,8.121 10.046,7.226 9.911,5.773 C9.777,4.321 10.527,3.096 11.931,2.966 C13.504,2.821 14.049,4.166 14.131,5.052 C14.148,5.232 14.141,5.372 14.139,5.462 L10.754,5.776 L10.754,5.776 Z M13.264,4.913 C13.223,4.353 12.904,3.511 11.918,3.601 C11.032,3.683 10.72,4.536 10.706,5.149 L13.264,4.913 L13.264,4.913 Z"></path>
                <path d="M15.139,4.098 C15.093,3.6 15.045,3.194 14.979,2.797 L15.755,2.726 L15.878,3.518 L15.898,3.516 C16.094,3.037 16.611,2.537 17.408,2.463 C18.075,2.401 19.146,2.704 19.299,4.356 L19.565,7.233 L18.689,7.313 L18.432,4.538 C18.361,3.762 18.013,3.142 17.187,3.218 C16.609,3.272 16.199,3.72 16.094,4.222 C16.065,4.335 16.059,4.488 16.073,4.636 L16.341,7.532 L15.465,7.613 L15.139,4.098 L15.139,4.098 Z"></path>
                <path d="M21.432,0.807 L21.56,2.191 L22.814,2.076 L22.876,2.743 L21.622,2.858 L21.861,5.456 C21.917,6.053 22.117,6.376 22.605,6.331 C22.834,6.31 23.001,6.265 23.107,6.225 L23.208,6.877 C23.045,6.963 22.781,7.037 22.442,7.068 C22.034,7.106 21.693,7.006 21.463,6.788 C21.191,6.552 21.062,6.132 21.009,5.564 L20.767,2.936 L20.02,3.005 L19.958,2.338 L20.705,2.269 L20.599,1.116 L21.432,0.807 L21.432,0.807 Z"></path>
                <path d="M24.466,4.511 C24.595,5.695 25.397,6.113 26.273,6.032 C26.9,5.973 27.267,5.83 27.584,5.66 L27.791,6.274 C27.495,6.441 26.982,6.649 26.216,6.719 C24.734,6.857 23.758,5.962 23.624,4.508 C23.489,3.056 24.239,1.832 25.643,1.702 C27.215,1.556 27.761,2.902 27.843,3.788 C27.86,3.967 27.853,4.108 27.851,4.199 L24.466,4.511 L24.466,4.511 Z M26.976,3.647 C26.935,3.087 26.616,2.245 25.63,2.335 C24.744,2.417 24.432,3.269 24.418,3.882 L26.976,3.647 L26.976,3.647 Z"></path>
                <path d="M28.973,5.46 C29.246,5.606 29.721,5.742 30.159,5.702 C30.796,5.641 31.065,5.297 31.029,4.898 C30.99,4.481 30.72,4.275 30.051,4.094 C29.156,3.865 28.704,3.426 28.652,2.849 C28.58,2.074 29.148,1.377 30.183,1.283 C30.67,1.238 31.111,1.339 31.395,1.471 L31.235,2.128 C31.035,2.025 30.672,1.899 30.223,1.94 C29.706,1.988 29.445,2.313 29.478,2.67 C29.515,3.067 29.82,3.221 30.469,3.401 C31.334,3.641 31.801,4.02 31.867,4.737 C31.945,5.584 31.343,6.241 30.198,6.345 C29.671,6.395 29.171,6.31 28.814,6.141 L28.973,5.46 L28.973,5.46 Z"></path>
            </g>
        </g>
    </g>
</svg>